<?xml version="1.0" standalone="no"?>
<!DOCTYPE svg PUBLIC "-//W3C//DTD SVG 20010904//EN"
 "http://www.w3.org/TR/2001/REC-SVG-20010904/DTD/svg10.dtd">
<svg version="1.0" xmlns="http://www.w3.org/2000/svg"
 width="853.000000pt" height="1280.000000pt" viewBox="0 0 853.000000 1280.000000"
 preserveAspectRatio="xMidYMid meet">

<g transform="translate(0.000000,1280.000000) scale(0.100000,-0.100000)"
fill="#000000" stroke="none">
<path d="M0 12051 l1 -749 27 -5 c40 -8 77 -40 69 -60 -5 -12 -19 -17 -52 -17
l-45 0 0 -345 0 -345 33 0 c17 0 50 -3 71 -7 28 -4 37 -3 32 5 -5 8 4 12 29
12 33 0 36 -2 30 -22 -11 -35 -31 -46 -117 -65 l-78 -16 2 -216 3 -216 27 -3
c17 -2 30 -11 34 -24 7 -23 -9 -38 -43 -38 -23 0 -23 -2 -23 -125 l0 -125 30
0 c19 0 30 -5 30 -14 0 -7 10 -17 23 -21 21 -6 21 -7 -8 -20 -16 -8 -40 -14
-52 -15 l-23 0 0 -405 0 -405 24 0 c36 0 40 -17 6 -24 l-30 -5 0 -400 c0 -310
3 -401 13 -405 10 -5 10 -7 0 -12 -9 -4 -13 -37 -13 -111 l0 -106 330 7 c339
7 412 3 493 -31 22 -10 37 -23 37 -33 0 -24 28 -30 141 -30 102 0 159 -7 159
-20 0 -16 -30 -18 -136 -10 -60 5 -315 12 -566 16 l-458 7 0 -468 0 -468 38 7
c20 3 164 11 320 17 219 8 286 8 298 -1 17 -15 19 -69 1 -75 -6 -2 -118 -9
-247 -15 -129 -6 -274 -13 -323 -17 l-87 -6 0 -152 0 -152 118 -18 c64 -9 135
-26 157 -36 26 -11 73 -19 132 -22 104 -5 137 -20 146 -64 3 -15 3 -30 0 -33
-2 -3 -39 -6 -81 -7 -136 -5 -426 -24 -450 -30 -22 -5 -22 -5 -20 -187 l3
-181 140 -13 c118 -11 143 -16 157 -34 33 -38 3 -50 -156 -64 -77 -7 -142 -13
-143 -13 -2 -1 -3 -50 -3 -111 l0 -110 28 0 c46 -1 252 -46 265 -59 20 -20 -6
-45 -54 -53 -24 -4 -88 -11 -141 -14 l-98 -6 0 -63 0 -62 88 -6 c60 -3 109
-13 157 -32 98 -38 110 -49 79 -79 -13 -13 -43 -16 -170 -16 l-154 0 0 -354
c0 -291 2 -355 14 -359 15 -6 10 -57 -5 -57 -5 0 -9 -31 -9 -68 l0 -69 27 4
c33 5 52 -9 82 -59 25 -42 18 -51 -37 -47 -78 4 -72 19 -71 -178 0 -98 3 -172
6 -165 7 18 33 15 33 -4 0 -9 -9 -18 -20 -21 -19 -5 -20 -14 -20 -198 0 -146
3 -194 13 -197 9 -4 13 -53 14 -194 1 -104 4 -229 7 -279 3 -49 2 -98 -1 -108
-5 -18 -5 -18 -19 0 -11 15 -13 -181 -14 -1320 l0 -1337 2273 2 c1249 1 2238
4 2197 8 -41 3 -100 15 -130 25 l-55 20 58 3 c31 2 57 7 57 12 0 6 7 10 15 10
8 0 15 -4 15 -10 0 -5 5 -10 10 -10 20 0 10 21 -15 30 -13 5 -33 17 -44 27
-37 34 -50 43 -58 41 -4 -2 -9 1 -10 5 0 5 -14 22 -29 38 l-28 29 34 6 c30 7
32 8 15 21 -11 7 -40 13 -66 13 -26 0 -50 4 -53 9 -5 8 32 49 40 44 2 -2 7 -3
12 -2 4 0 -3 4 -16 10 -24 9 -22 29 4 29 8 0 14 9 14 19 0 14 5 18 19 14 11
-3 21 2 24 11 4 11 1 16 -11 16 -23 0 -52 21 -56 40 -3 20 -29 60 -38 60 -5 0
-17 9 -27 19 -19 19 -19 19 0 24 12 3 17 11 13 20 -7 19 29 12 47 -9 6 -8 23
-14 37 -14 25 0 25 0 6 16 -18 15 -18 15 6 10 14 -3 51 -8 83 -12 31 -4 54
-10 52 -14 -3 -5 4 -6 15 -3 11 3 23 9 26 14 2 4 15 4 28 -1 21 -7 23 -6 19
11 -4 14 0 19 15 19 11 0 28 3 37 6 14 6 11 11 -15 35 -17 16 -29 33 -25 38 3
5 -4 12 -15 16 -11 3 -21 11 -21 16 -1 5 -2 15 -3 22 0 6 -14 13 -30 15 -23 3
-27 7 -24 27 4 19 -2 26 -36 39 -32 13 -38 19 -26 26 8 5 25 10 38 10 13 0 22
6 22 15 0 10 -10 15 -34 15 -19 0 -38 5 -41 10 -3 6 -24 10 -46 10 -44 0 -52
14 -14 24 16 4 25 13 25 27 0 16 -4 19 -21 14 -13 -5 -25 -2 -29 6 -5 8 -30
12 -69 12 -85 -1 -86 14 -1 22 89 9 92 28 8 42 -82 14 -130 15 -123 3 4 -6 15
-10 26 -10 10 0 19 -4 19 -8 0 -18 -13 -20 -35 -6 -12 8 -31 14 -41 13 -54 -5
-127 2 -118 11 7 7 27 7 59 1 54 -10 97 1 60 15 -11 4 -23 12 -27 18 -3 5 -48
12 -100 14 -64 2 -106 10 -135 23 -48 21 -53 33 -23 51 23 14 26 34 8 41 -7 2
-10 8 -6 12 12 13 37 -20 27 -36 -14 -23 -11 -24 35 -21 47 4 116 -13 116 -29
0 -5 11 -9 25 -9 14 0 24 -5 23 -11 -3 -11 78 -38 115 -39 25 0 21 19 -8 30
-16 6 -23 15 -19 24 3 8 -3 19 -15 25 -27 15 -41 14 -41 -4 0 -8 -7 -15 -15
-15 -8 0 -15 9 -15 20 0 11 6 20 14 20 8 0 16 6 19 13 6 20 -4 47 -19 47 -8 0
-19 9 -26 20 -15 23 -24 25 -42 7 -16 -16 -3 -39 28 -51 18 -6 17 -8 -9 -22
-26 -13 -30 -13 -52 8 -12 12 -23 28 -23 35 0 14 -23 43 -34 43 -3 0 -6 -6 -6
-12 0 -9 -21 -13 -70 -14 -39 -1 -70 2 -70 7 0 5 -6 9 -14 9 -15 0 -11 46 5
56 25 15 3 32 -67 48 -78 19 -91 17 -81 -9 4 -9 19 -15 40 -15 25 0 37 -6 46
-24 8 -13 10 -30 6 -37 -5 -7 -4 -10 3 -5 6 3 13 2 16 -3 8 -12 -47 -22 -59
-10 -5 6 -3 9 8 9 20 0 23 29 5 34 -7 3 -30 7 -51 10 -43 6 -47 -11 -8 -30 19
-10 16 -11 -26 -12 -33 -1 -64 6 -97 23 -53 27 -105 32 -124 13 -9 -9 -24 -9
-64 1 -29 8 -58 17 -63 22 -12 9 -41 7 -51 -4 -11 -10 41 -54 73 -61 22 -5 25
-4 13 5 -12 8 -8 9 15 5 69 -14 115 -31 115 -43 0 -19 -38 -25 -78 -12 -39 13
-91 14 -105 0 -4 -4 2 -20 13 -34 l21 -27 -31 0 c-19 0 -29 -4 -25 -10 4 -6
16 -10 28 -9 37 3 57 -1 57 -11 0 -5 -13 -10 -30 -10 -25 0 -30 -4 -30 -23 0
-13 -5 -28 -12 -35 -17 -17 0 -28 22 -14 28 17 32 15 25 -9 -5 -14 -3 -19 4
-15 6 4 20 -2 32 -12 14 -14 17 -22 9 -27 -6 -4 -9 -13 -6 -20 2 -7 -2 -16
-10 -19 -24 -9 -95 5 -113 23 -15 15 -14 18 9 38 l25 22 -24 1 c-24 0 -24 1
-6 14 18 13 18 14 -6 26 -13 8 -37 16 -53 19 -25 6 -28 11 -31 48 -2 25 -12
51 -24 64 -12 13 -21 26 -21 29 0 16 -61 34 -122 36 -52 1 -68 -2 -68 -12 0
-8 -10 -14 -25 -14 -15 0 -25 6 -25 14 0 8 -6 17 -12 19 -10 4 -9 6 1 6 13 1
40 29 41 42 0 9 -82 29 -119 29 -16 0 -33 -4 -36 -10 -3 -5 -13 -10 -22 -10
-13 0 -15 12 -11 77 3 43 12 103 21 133 9 30 33 118 53 195 42 164 69 229 225
545 142 290 161 331 155 337 -2 3 -14 -12 -25 -34 -23 -43 -26 -41 -10 5 11
33 58 61 160 96 25 9 61 32 79 51 28 29 34 43 35 79 0 52 5 59 46 60 27 1 33
6 45 41 7 22 14 55 14 73 0 24 6 35 23 41 42 16 77 80 77 141 0 26 -27 47 -82
64 -10 3 -18 14 -18 24 0 14 12 23 45 32 47 13 71 32 61 49 -4 5 -2 12 4 16 5
3 10 0 10 -8 0 -12 5 -12 34 2 18 9 31 21 28 26 -4 6 -5 19 -4 31 5 33 -49 84
-89 84 -44 0 -27 13 46 35 33 10 86 31 118 47 52 26 57 31 57 61 0 30 -21 73
-43 88 -14 10 1 29 22 29 10 0 30 9 44 20 14 11 31 20 39 20 7 0 28 16 47 35
29 30 33 39 27 67 -7 35 -32 68 -53 68 -24 0 -13 20 15 26 66 14 97 32 114 65
25 50 22 66 -20 93 -20 13 -43 31 -51 39 -11 15 -10 18 14 27 14 5 32 10 39
10 20 0 84 28 91 40 4 6 11 8 16 5 11 -7 59 39 59 58 0 21 -22 37 -52 37 -21
0 -28 5 -28 20 0 12 -7 20 -16 20 -10 0 -14 7 -12 22 2 19 8 22 36 20 17 -2
32 1 32 6 0 6 19 13 43 17 81 14 127 53 127 107 0 26 -3 28 -38 28 -22 0 -53
-7 -71 -16 -47 -23 -58 -7 -37 48 23 57 51 79 87 66 22 -7 38 -4 83 17 31 15
56 31 56 36 0 6 -7 6 -17 0 -31 -16 -103 -41 -120 -41 -30 0 -3 14 80 40 66
22 85 32 95 54 13 25 12 29 -12 51 -13 12 -27 20 -30 17 -3 -3 -6 0 -6 7 0 7
-4 9 -10 6 -20 -12 -50 15 -50 46 0 34 3 35 88 44 52 5 62 4 62 -10 0 -11 11
-15 42 -15 33 0 39 -3 30 -12 -18 -18 -15 -35 8 -41 25 -7 26 -27 1 -27 -29 0
-47 -26 -30 -46 10 -13 10 -17 -2 -25 -12 -7 -12 -9 0 -9 11 0 12 -15 7 -76
-6 -66 -5 -78 11 -90 10 -7 25 -14 34 -14 9 0 22 -7 29 -15 7 -8 21 -15 31
-15 9 0 24 -6 31 -13 22 -22 97 -36 218 -41 101 -4 317 -35 465 -67 99 -22
179 -52 207 -79 16 -15 39 -30 51 -33 12 -3 57 -12 101 -21 174 -35 301 -108
270 -157 -3 -6 -1 -15 5 -19 8 -4 1 -12 -19 -20 -25 -10 -29 -17 -24 -34 4
-11 8 -22 9 -24 7 -8 45 20 65 49 12 16 39 41 59 54 21 13 46 31 56 41 32 33
42 26 31 -20 -13 -47 -21 -60 -96 -145 -30 -35 -67 -76 -81 -92 -35 -41 -70
-107 -59 -114 5 -3 20 1 32 8 32 20 76 29 83 17 20 -32 91 18 262 185 51 49
124 119 163 154 40 36 91 94 115 130 23 36 73 98 109 136 103 109 210 282 246
400 7 22 22 60 33 85 13 28 22 75 25 125 2 44 9 86 14 93 12 13 94 17 102 4 3
-5 31 -14 63 -21 99 -21 126 -32 193 -81 36 -26 87 -53 115 -60 70 -18 95 -32
168 -94 71 -60 224 -143 326 -177 37 -12 75 -28 86 -34 11 -7 38 -18 60 -25
22 -6 49 -15 60 -20 24 -11 128 -33 290 -60 83 -15 176 -40 190 -52 5 -4 13
-8 17 -8 4 0 8 1854 8 4120 l0 4120 -4265 0 -4265 0 0 -749z m3698 223 c48
-23 72 -40 72 -52 0 -9 7 -91 14 -182 8 -91 16 -217 17 -280 1 -133 6 -160 25
-160 16 0 19 -46 4 -55 -16 -10 -11 -28 6 -21 8 3 13 2 10 -3 -3 -4 12 -16 34
-26 26 -12 40 -25 40 -37 0 -13 10 -20 30 -25 26 -5 34 -18 11 -18 -6 0 -68
-29 -131 -61 -14 -7 -27 -25 -31 -41 -5 -23 -33 -88 -44 -101 -2 -2 -33 7 -69
20 l-66 23 2 63 c1 51 -2 66 -18 81 -24 22 -102 55 -177 76 l-57 16 25 49 c14
27 25 63 25 79 0 26 -8 34 -73 70 -53 29 -96 44 -156 55 -88 15 -98 22 -130
88 -10 21 -21 35 -24 31 -4 -3 -7 -1 -7 5 0 6 -10 20 -22 32 -12 11 -17 20
-10 20 6 0 15 12 18 27 4 15 13 34 21 41 7 7 13 31 13 53 0 35 -3 39 -25 39
-32 0 -36 39 -5 47 23 6 27 33 5 33 -27 0 -16 27 20 46 19 10 35 22 35 26 0 5
9 8 20 8 12 0 31 7 43 14 12 8 38 18 57 21 19 3 49 10 65 15 17 5 55 11 84 15
30 3 56 7 57 8 1 1 51 1 111 -1 100 -3 114 -6 181 -38z m-1556 -88 c18 -25 46
-74 85 -147 17 -34 23 -60 21 -90 l-3 -43 -26 40 c-112 173 -121 184 -135 173
-8 -7 -65 -14 -129 -17 l-114 -5 -12 27 c-9 19 -9 30 -2 37 19 19 86 29 178
28 59 -1 90 2 93 10 6 18 26 12 44 -13z m417 -8 c5 -13 7 -26 4 -30 -5 -10
-37 11 -52 33 -10 17 -8 19 14 19 17 0 28 -7 34 -22z m262 12 c46 0 59 -3 59
-15 0 -12 13 -15 57 -15 31 0 54 -3 50 -6 -9 -10 -187 -14 -187 -5 0 5 -36 12
-80 16 -62 6 -80 10 -80 22 0 13 10 15 61 9 34 -3 88 -6 120 -6z m-1967 -245
c-32 -63 -64 -115 -71 -115 -20 0 -27 47 -12 83 7 17 23 46 34 62 12 17 25 38
28 48 4 9 17 21 31 27 13 5 28 14 32 21 6 10 9 10 12 1 2 -7 -22 -64 -54 -127z
m2012 -57 c44 -46 94 -111 94 -121 0 -4 -9 -7 -20 -7 -13 0 -38 25 -75 74 -52
72 -65 96 -47 96 4 0 26 -19 48 -42z m-962 2 c28 -28 6 -50 -50 -50 -76 0
-126 39 -87 68 25 18 112 7 137 -18z m-559 -25 c0 -26 -5 -30 -38 -38 -21 -5
-53 -6 -72 -3 -78 15 -17 77 70 73 37 -2 40 -4 40 -32z m1135 -145 c0 -5 -4
-10 -9 -10 -6 0 -13 5 -16 10 -3 6 1 10 9 10 9 0 16 -4 16 -10z m-1162 -107
c3 -22 0 -23 -57 -23 -68 0 -79 13 -28 35 46 21 81 15 85 -12z m1912 -18 c0
-8 -9 -15 -19 -15 -20 0 -31 17 -24 37 7 17 43 -2 43 -22z m-2662 -3 c3 -10
-4 -13 -24 -10 -15 2 -29 9 -32 16 -3 10 4 13 24 10 15 -2 29 -9 32 -16z m174
-10 c10 -11 8 -17 -7 -28 -44 -33 -154 4 -118 40 13 13 113 3 125 -12z m-564
-69 c14 -22 13 -23 -15 -23 -34 0 -54 16 -46 37 8 20 43 12 61 -14z m2442 -40
c0 -8 -12 -24 -27 -37 -24 -20 -25 -26 -14 -40 8 -10 9 -16 3 -16 -6 0 -14 5
-17 10 -11 17 -25 11 -35 -15 -12 -32 -64 -37 -139 -11 -47 15 -49 32 -7 57
31 18 34 23 26 44 -9 24 -9 24 73 27 105 4 137 -1 137 -19z m493 -7 c29 -16
47 -21 49 -14 7 19 64 -22 80 -57 13 -29 13 -34 -3 -53 -11 -15 -26 -20 -50
-19 -30 2 -34 -1 -31 -21 l2 -24 -30 25 c-19 17 -37 23 -51 20 -30 -8 -125 17
-149 39 -11 10 -20 30 -20 45 0 23 3 25 32 21 26 -4 38 1 65 28 19 19 40 34
47 34 7 0 34 -11 59 -24z m-1327 -40 c1 0 5 -11 8 -23 7 -20 4 -23 -24 -23
-32 0 -47 18 -36 46 4 11 13 13 28 8 13 -3 24 -7 24 -8z m-1315 -46 c10 -6 71
-11 134 -12 89 -2 116 -5 120 -16 3 -8 4 -17 2 -19 -2 -2 -56 -10 -119 -19
l-115 -16 -57 26 c-51 24 -67 42 -49 59 10 11 62 8 84 -3z m819 -20 c9 -17 8
-20 -13 -20 -29 0 -55 25 -35 33 25 10 37 7 48 -13z m1384 -183 c25 -18 28
-65 5 -77 -24 -13 -70 -13 -125 1 -47 12 -56 24 -24 34 11 3 20 15 20 25 0 29
90 42 124 17z m526 -26 c15 -28 13 -35 -16 -48 -17 -8 -34 -9 -50 -3 -28 11
-30 23 -7 50 22 25 59 26 73 1z m-1371 -12 c36 -12 72 -23 80 -25 20 -6 11
-11 -34 -18 -22 -3 -59 -9 -82 -14 -67 -14 -116 23 -83 63 17 20 42 19 119 -6z
m1789 -22 c68 0 78 -10 36 -41 -22 -15 -38 -18 -95 -14 -39 3 -72 8 -76 11 -3
4 2 18 11 33 14 20 22 24 39 18 12 -4 50 -8 85 -7z m-3009 -42 c7 -7 11 -20 8
-28 -16 -41 -382 -39 -431 2 -26 21 -4 35 54 33 28 0 61 3 73 9 33 14 279 1
296 -16z m656 0 c0 -14 -6 -19 -20 -17 -27 5 -39 18 -30 32 12 19 50 7 50 -15z
m722 -11 c40 -11 73 -22 73 -26 0 -3 -34 -9 -75 -13 -82 -8 -125 -3 -179 20
-16 7 -12 11 25 26 48 20 50 20 156 -7z m-697 -33 c0 -12 -21 -19 -80 -27 -33
-4 -50 -3 -50 4 0 6 14 10 30 10 17 -1 36 4 42 10 14 14 58 16 58 3z m2220
-11 c0 -5 -2 -10 -4 -10 -3 0 -8 5 -11 10 -3 6 -1 10 4 10 6 0 11 -4 11 -10z
m-656 -54 c9 -13 6 -21 -14 -36 -14 -11 -19 -20 -12 -20 6 0 12 -5 12 -11 0
-5 -4 -7 -10 -4 -5 3 -21 -2 -35 -11 -20 -13 -39 -15 -86 -11 -71 8 -111 31
-107 61 3 18 12 22 63 28 33 4 83 11 110 16 60 11 66 11 79 -12z m497 -26 c39
0 66 -39 48 -69 -11 -17 -10 -23 5 -40 19 -21 19 -21 -1 -21 -11 0 -40 7 -63
15 -23 8 -56 15 -72 15 -37 0 -68 16 -68 36 0 9 14 29 30 46 26 25 36 29 62
24 17 -3 43 -6 59 -6z m-1507 -55 c110 -33 167 -71 136 -90 -14 -8 -152 13
-164 25 -6 6 -30 10 -54 10 -24 0 -52 5 -63 10 -19 10 -26 40 -12 53 12 12
107 7 157 -8z m1990 -4 c3 -4 -3 -16 -14 -26 -23 -21 -60 -12 -60 16 0 15 7
19 34 19 19 0 37 -4 40 -9z m-2595 -10 c17 -11 17 -67 0 -87 -8 -10 -33 -14
-85 -14 -77 0 -92 9 -49 28 14 6 25 19 25 27 0 9 19 24 43 35 49 23 48 22 66
11z m2441 -59 c0 -12 -4 -12 -20 3 -11 10 -20 25 -20 33 0 12 4 12 20 -3 11
-10 20 -25 20 -33z m-3230 18 c30 -16 15 -30 -34 -30 -28 0 -52 -7 -69 -20
-15 -12 -53 -24 -98 -30 -40 -6 -77 -15 -84 -20 -15 -13 -32 1 -40 32 -5 19
-14 28 -33 30 -16 2 -27 9 -27 18 0 12 11 14 50 13 28 -2 88 4 135 12 90 15
166 13 200 -5z m1294 -36 c25 -9 19 -24 -9 -24 -16 0 -25 6 -25 15 0 16 9 19
34 9z m-648 -55 c3 -5 -17 -9 -44 -9 -27 0 -65 -3 -83 -7 -31 -6 -33 -5 -21
10 10 12 30 16 78 16 35 -1 66 -5 70 -10z m1884 -38 c0 -5 -7 -11 -15 -15 -12
-4 -13 -11 -5 -32 16 -40 4 -64 -28 -59 -15 2 -65 7 -110 10 -79 5 -168 19
-202 32 -20 7 35 32 72 33 15 0 30 5 33 10 3 6 34 10 68 11 34 0 71 4 82 9 27
12 105 12 105 1z m434 -57 c9 -3 13 -10 10 -15 -3 -5 0 -9 5 -9 6 0 11 -4 11
-10 0 -5 -18 -10 -39 -10 -37 0 -51 11 -51 41 0 10 40 12 64 3z m642 -27 c11
-11 -15 -34 -46 -41 -42 -8 -80 9 -80 35 0 20 4 21 60 17 33 -2 63 -7 66 -11z
m-2240 -12 c5 -11 22 -15 64 -15 81 0 161 -17 176 -38 17 -23 11 -26 -69 -42
-61 -11 -81 -10 -168 6 -97 18 -100 20 -94 43 4 15 1 27 -7 33 -10 6 -10 10 2
18 24 16 90 12 96 -5z m2015 0 c5 4 16 1 24 -5 19 -16 20 -44 1 -37 -7 3 -18
1 -24 -5 -11 -11 -102 24 -102 41 0 15 22 19 58 9 18 -5 37 -6 43 -3z m-2631
-55 c0 -5 -8 -10 -18 -10 -10 0 -22 -4 -28 -10 -10 -10 -54 -2 -54 10 0 9 29
16 73 19 15 0 27 -3 27 -9z m-912 -17 c-10 -2 -26 -2 -35 0 -10 3 -2 5 17 5
19 0 27 -2 18 -5z m942 -18 c0 -22 -36 -36 -83 -33 l-42 3 35 22 c40 26 90 31
90 8z m-204 -50 c-8 -9 -32 -15 -58 -15 l-43 1 30 14 c17 7 43 14 58 14 25 1
27 -1 13 -14z m2038 -58 c18 -35 19 -39 3 -54 -15 -15 -27 -15 -163 0 -81 9
-152 21 -157 26 -6 6 0 14 14 22 30 17 192 47 244 45 35 -1 41 -5 59 -39z
m550 -21 c63 -30 137 -89 125 -100 -4 -4 -228 39 -233 45 -13 16 -35 73 -30
80 11 18 70 8 138 -25z m435 -41 c17 -30 31 -57 31 -60 0 -13 -36 -3 -56 16
-12 11 -41 31 -65 44 -24 12 -45 30 -47 39 -3 13 6 16 51 16 l55 0 31 -55z
m171 35 c0 -5 -7 -10 -15 -10 -8 0 -15 5 -15 10 0 6 7 10 15 10 8 0 15 -4 15
-10z m84 -85 c-12 -30 -64 -30 -64 1 0 9 11 14 35 14 26 0 33 -4 29 -15z
m-2261 -6 c153 -13 176 -17 156 -30 -7 -5 -30 -9 -49 -10 l-35 -1 33 -8 c71
-17 53 -22 -138 -40 -63 -6 -160 -15 -216 -22 -122 -13 -137 -8 -140 51 -2 47
11 52 72 26 25 -10 41 -12 53 -5 15 9 14 9 -1 10 -10 0 -18 4 -18 10 0 31 82
37 283 19z m-883 -14 c0 -3 -10 -9 -22 -14 -19 -7 -17 -9 23 -22 39 -12 44
-18 47 -46 2 -18 2 -33 0 -33 -2 0 -52 -7 -113 -15 -191 -26 -315 -19 -315 17
0 12 105 58 132 58 13 0 33 7 45 15 40 28 203 60 203 40z m2059 -175 c25 -48
27 -86 5 -94 -25 -9 -96 5 -132 26 -26 16 -38 18 -61 10 -23 -8 -32 -7 -45 6
-14 14 -22 15 -61 4 -84 -22 -153 -11 -126 22 21 25 215 62 342 65 57 1 57 1
78 -39z m-583 16 c42 -32 -29 -73 -109 -63 -21 3 -41 8 -44 11 -11 10 31 41
71 52 57 16 60 16 82 0z m1108 -16 c36 -12 78 -32 93 -47 16 -14 43 -32 61
-39 17 -8 32 -21 32 -29 0 -12 -19 -15 -104 -15 -116 0 -156 10 -156 39 0 10
-9 21 -20 24 -25 6 -41 46 -28 70 11 22 41 22 122 -3z m686 11 c0 -11 -49 -21
-67 -14 -27 10 -12 23 27 23 22 0 40 -4 40 -9z m-250 -15 c0 -2 -3 -11 -6 -20
-5 -12 -10 -13 -30 -4 -13 6 -21 15 -18 19 5 9 54 13 54 5z m58 -32 c13 -20
21 -42 18 -50 -5 -13 -10 -13 -35 1 -38 19 -48 35 -28 47 9 5 14 15 11 23 -11
28 11 15 34 -21z m232 -34 c-20 -13 -33 -13 -25 0 3 6 14 10 23 10 15 0 15 -2
2 -10z m-2678 -25 c23 -20 41 -25 81 -25 85 -1 310 -29 321 -40 8 -8 6 -14 -6
-21 -26 -14 -22 -29 7 -29 14 0 29 8 35 20 12 23 68 28 88 8 18 -18 15 -48 -5
-48 -241 -4 -670 3 -684 10 -15 9 -17 18 -12 63 8 72 24 87 91 87 43 0 60 -5
84 -25z m-610 -22 c12 -11 18 -30 18 -58 0 -38 -3 -44 -27 -49 -14 -4 -83 -4
-152 -1 -86 5 -135 3 -155 -4 -16 -7 -87 -15 -158 -18 -114 -5 -128 -4 -128
10 0 20 38 56 65 62 11 3 88 17 170 31 83 14 168 29 190 34 73 14 157 12 177
-7z m2978 -3 c0 -5 -4 -10 -10 -10 -5 0 -10 5 -10 10 0 6 5 10 10 10 6 0 10
-4 10 -10z m430 -180 c0 -5 -18 -10 -41 -10 -24 0 -38 4 -34 10 3 6 22 10 41
10 19 0 34 -4 34 -10z m150 -5 c0 -8 -9 -19 -20 -25 -23 -12 -25 -7 -10 21 13
22 30 25 30 4z m-322 -39 c15 -41 15 -76 1 -76 -6 0 -8 -7 -5 -15 3 -8 9 -22
12 -30 4 -10 0 -15 -11 -15 -9 0 -19 9 -22 20 -3 10 -13 22 -22 25 -9 3 -29
16 -45 30 -16 14 -49 38 -73 53 -24 15 -43 30 -43 33 0 3 44 6 98 6 l99 1 11
-32z m-1111 -25 c6 -1 17 -17 23 -36 9 -29 9 -39 -1 -52 -12 -14 -31 -15 -139
-9 -110 6 -283 25 -390 43 -64 11 63 30 340 52 52 4 109 7 125 5 17 -1 35 -3
42 -3z m1353 4 c0 -5 -55 -35 -65 -35 -3 0 -5 6 -5 14 0 8 12 17 28 19 15 2
30 5 35 6 4 0 7 -1 7 -4z m-792 -28 c31 -13 85 -34 120 -47 34 -12 61 -28 59
-34 -2 -7 -51 -12 -140 -14 -126 -2 -138 -1 -157 18 -13 13 -20 33 -20 60 l0
40 40 0 c22 0 66 -11 98 -23z m427 -77 c3 -5 -3 -10 -14 -10 -12 0 -21 5 -21
10 0 6 6 10 14 10 8 0 18 -4 21 -10z m185 0 c0 -5 -7 -10 -15 -10 -8 0 -15 5
-15 10 0 6 7 10 15 10 8 0 15 -4 15 -10z m-2355 -75 c198 -23 200 -38 5 -37
-25 1 -20 -2 20 -9 30 -5 71 -13 90 -17 19 -4 -104 -9 -275 -12 -170 -3 -317
-2 -327 2 -9 4 -15 16 -14 25 3 16 18 18 182 17 98 -1 163 2 142 6 -36 6 -88
34 -88 47 0 6 54 2 265 -22z m-1007 -17 c5 -7 13 -23 16 -35 6 -20 3 -21 -76
-27 -151 -10 -399 -16 -424 -10 -14 4 -24 14 -24 23 0 15 16 20 93 31 205 29
399 37 415 18z m3171 -104 c22 -5 31 -12 31 -26 0 -18 -4 -20 -47 -13 -27 4
-74 11 -106 14 -31 4 -63 13 -69 19 -9 9 8 12 74 12 47 0 100 -3 117 -6z m591
-32 c0 -14 -23 -32 -42 -32 -25 0 -23 15 5 28 27 13 37 14 37 4z m-302 -31 c6
-40 -10 -44 -87 -21 -39 12 -71 25 -71 29 0 18 18 22 85 19 65 -3 70 -5 73
-27z m-1498 -101 c18 -4 26 -15 30 -36 3 -18 11 -29 20 -28 35 2 46 5 59 13
12 8 12 12 2 24 -18 22 -5 25 100 29 80 3 98 0 119 -16 l26 -20 -27 -29 -27
-29 -140 6 c-131 5 -277 18 -364 32 -28 4 -38 11 -40 27 -2 15 -12 23 -28 26
l-25 4 25 8 c27 8 229 0 270 -11z m871 -50 c23 -13 90 -15 134 -5 19 4 44 0
70 -11 35 -15 38 -18 20 -25 -11 -4 -36 -8 -55 -8 -20 -1 -40 -5 -45 -9 -15
-13 -140 -33 -162 -26 -10 3 -27 10 -38 14 -11 5 -29 10 -40 12 -23 4 -32 33
-15 53 15 18 101 20 131 5z m-2081 -70 c10 -5 48 -10 85 -10 53 0 73 -5 105
-25 22 -14 40 -32 40 -40 0 -8 7 -15 15 -15 24 0 17 -29 -7 -34 -13 -3 -99 -7
-193 -11 -93 -3 -195 -10 -225 -14 -57 -8 -90 1 -90 26 0 7 -4 13 -10 13 -5 0
-16 12 -24 27 -18 35 -3 71 33 79 14 3 37 9 51 13 34 11 196 4 220 -9z m3360
-20 c0 -5 -7 -10 -15 -10 -8 0 -15 -7 -15 -15 0 -8 -4 -14 -8 -12 -8 2 -72
-48 -72 -56 0 -3 48 -4 106 -3 105 1 135 -8 119 -34 -4 -6 2 -19 13 -28 10 -9
23 -28 27 -41 4 -14 16 -38 26 -55 11 -17 19 -37 19 -44 0 -26 -85 -185 -120
-225 -31 -34 -43 -41 -74 -41 -51 0 -67 21 -75 97 -4 35 -14 76 -24 90 -9 15
-17 33 -17 42 0 9 -7 27 -16 40 -9 14 -13 32 -9 45 4 13 -1 33 -14 54 -22 35
-20 60 5 70 21 8 17 26 -6 26 -24 0 -25 7 -5 53 12 30 22 37 57 45 59 13 98
14 98 2z m-4097 -29 c30 -27 35 -52 13 -70 -20 -16 -460 -11 -476 5 -18 18 34
52 88 59 26 3 81 12 122 20 41 8 109 13 150 12 63 -2 79 -6 103 -26z m2705
-43 c-5 -15 -42 -22 -64 -14 -25 10 -5 26 32 26 24 0 34 -4 32 -12z m1072 -94
c0 -2 -9 -4 -21 -4 -11 0 -18 4 -14 10 5 8 35 3 35 -6z m-310 -20 c11 -11 12
-16 2 -26 -7 -7 -12 -20 -12 -30 0 -15 -9 -13 -65 15 -62 31 -80 50 -53 59 24
8 113 -4 128 -18z m116 5 c4 -8 9 -8 17 0 16 16 23 14 35 -14 18 -39 15 -46
-14 -35 -18 7 -31 7 -40 -1 -7 -6 -17 -8 -23 -5 -5 3 -12 0 -14 -6 -3 -7 -6 1
-6 18 -1 41 28 70 45 43z m-3055 -12 c12 -9 14 -18 8 -35 -11 -29 -45 -29 -51
1 -9 45 10 59 43 34z m2404 -14 c57 -14 78 -22 171 -64 22 -11 46 -19 52 -19
7 0 12 -6 12 -14 0 -10 -21 -15 -77 -20 -43 -4 -112 -11 -153 -16 -41 -5 -95
-11 -120 -14 -24 -2 -46 -9 -48 -15 -6 -17 -22 -3 -22 19 0 10 -7 20 -15 24
-10 3 -15 19 -15 45 0 22 -4 43 -10 46 -14 9 -12 42 3 48 20 9 157 -4 222 -20z
m-2947 -13 c15 -1 15 -2 -2 -15 -26 -20 -57 -20 -51 0 17 54 15 52 26 33 6
-10 18 -18 27 -18z m2330 8 c18 -23 25 -87 11 -104 -11 -14 -9 -19 11 -34 19
-15 22 -23 17 -55 -9 -56 -25 -68 -81 -60 -25 4 -46 11 -46 16 0 5 6 6 14 3
16 -6 41 30 49 72 l6 31 -137 7 c-300 14 -360 18 -442 28 -47 5 -191 14 -320
19 -335 12 -418 19 -431 35 -8 10 -3 16 24 27 26 11 78 14 228 12 107 -1 202
-6 211 -10 10 -4 20 -15 23 -26 5 -14 16 -19 46 -19 27 0 39 4 39 14 0 21 27
27 89 20 31 -3 68 -1 82 4 15 6 93 14 173 18 145 7 147 7 153 -15 7 -27 55
-31 52 -3 -1 9 -1 20 0 25 2 13 218 8 229 -5z m1152 -88 c0 -12 -37 -23 -50
-15 -14 9 -13 32 3 38 15 5 47 -10 47 -23z m-1670 -50 c-12 -8 -12 -10 2 -15
10 -4 14 -14 11 -26 -4 -15 0 -19 20 -19 14 0 28 -4 31 -9 8 -12 119 -5 145 8
27 15 46 14 61 -4 7 -8 25 -15 41 -15 33 0 35 -9 14 -50 -25 -48 -113 -66
-245 -51 -279 32 -359 45 -365 60 -10 27 31 51 89 52 76 1 145 13 124 21 -12
5 -15 13 -11 25 9 26 23 33 63 33 25 0 31 -3 20 -10z m1450 0 c-19 -13 -30
-13 -30 0 0 6 10 10 23 10 18 0 19 -2 7 -10z m-3240 -41 c11 -8 12 -12 3 -16
-8 -3 -11 -14 -7 -28 5 -19 0 -25 -28 -33 -18 -6 -96 -13 -173 -16 -77 -4
-205 -11 -285 -16 -188 -12 -327 -13 -335 0 -7 11 29 50 48 50 6 0 59 7 117
15 58 8 168 15 245 15 88 1 133 5 120 10 -11 5 -18 10 -15 11 4 1 160 12 265
17 17 1 37 -3 45 -9z m753 -25 c23 -8 44 -20 48 -26 5 -7 44 -15 91 -18 83 -5
83 -5 -57 -13 -231 -12 -329 -11 -352 4 l-21 13 20 27 c21 27 23 28 125 28 66
0 120 -6 146 -15z m1452 -14 c-3 -5 -13 -10 -21 -10 -8 0 -14 5 -14 10 0 6 9
10 21 10 11 0 17 -4 14 -10z m1606 -36 c10 -12 25 -15 59 -11 25 2 52 8 61 11
13 6 17 2 17 -16 1 -13 2 -34 4 -47 2 -14 -3 -26 -11 -29 -10 -3 -13 3 -9 27
l5 31 -64 -6 c-52 -6 -67 -4 -82 10 -13 12 -32 16 -57 14 -36 -3 -39 -5 -41
-38 -1 -19 1 -29 4 -22 8 21 23 13 23 -14 0 -14 -4 -23 -9 -19 -16 10 -21 -11
-10 -48 7 -27 15 -37 29 -37 11 0 20 -4 20 -9 0 -8 -51 -15 -215 -27 -87 -6
-148 7 -127 28 7 7 12 20 12 30 0 24 38 32 111 24 39 -5 59 -3 59 4 0 5 0 13
0 16 0 4 -18 7 -41 8 -22 1 -44 7 -47 12 -4 5 -32 22 -62 38 -30 16 -59 33
-65 38 -21 19 25 28 160 29 77 0 160 4 185 8 69 13 77 12 91 -5z m-3294 -86
c33 -31 90 -39 360 -48 286 -9 351 -16 408 -41 42 -19 66 -56 44 -70 -20 -12
-278 -18 -541 -13 -275 6 -337 15 -339 53 -1 32 -1 116 0 129 2 19 43 14 68
-10z m3331 13 c9 -5 25 -12 35 -15 31 -10 18 -22 -25 -21 -37 0 -43 3 -46 23
-4 24 8 28 36 13z m-3830 -103 c23 -19 14 -58 -15 -70 -27 -11 -798 -38 -835
-30 -23 5 -23 24 0 45 20 18 334 53 600 66 174 9 228 6 250 -11z m2959 6 c43
-9 105 -22 138 -28 80 -16 85 -38 13 -55 -58 -13 -245 -31 -320 -31 -53 0 -76
17 -85 61 -3 16 -10 29 -16 29 -5 0 0 9 13 20 29 26 143 27 257 4z m-577 -69
c0 -8 -5 -24 -12 -35 -10 -15 -9 -24 1 -44 14 -26 10 -91 -7 -108 -13 -13
-153 -26 -186 -17 -15 5 -126 7 -247 5 -120 -2 -235 0 -256 4 -21 4 -33 8 -27
9 7 0 14 10 17 20 3 13 20 24 48 31 24 7 53 16 64 21 11 4 31 9 45 11 23 3 23
4 -12 21 -75 36 -34 73 68 62 59 -6 65 -9 108 -55 26 -27 51 -61 56 -75 8 -20
16 -25 43 -25 19 0 46 9 59 20 14 10 52 29 84 41 34 12 68 32 79 47 21 28 22
30 24 62 1 25 51 29 51 5z m515 -80 c22 -7 65 -16 95 -20 30 -3 57 -10 60 -14
3 -4 29 -14 59 -22 30 -8 56 -19 58 -26 8 -22 -49 -28 -246 -26 -148 1 -196 5
-203 15 -12 17 -3 99 11 108 17 10 120 1 166 -15z m839 -120 c-3 -22 -7 -50
-9 -61 -3 -22 41 -94 57 -94 4 0 8 -4 8 -9 0 -5 -21 -9 -47 -9 -27 1 -100 -1
-163 -4 -121 -5 -140 -3 -140 16 0 22 48 66 78 72 17 3 41 15 53 27 l22 20
-54 14 c-30 8 -58 18 -63 23 -27 27 54 48 176 46 l87 -1 -5 -40z m-3751 0 c40
-17 13 -55 -49 -66 -70 -13 -327 -14 -351 -1 -11 6 -23 9 -26 6 -3 -3 -3 3 0
15 3 11 12 26 21 33 26 22 358 32 405 13z m939 1 c64 0 120 -4 124 -9 4 -4 -1
-7 -11 -7 -18 0 -18 0 0 -14 16 -12 12 -14 -41 -19 -32 -3 -161 -5 -286 -5
l-228 -1 0 24 c0 39 24 45 180 39 80 -4 198 -7 262 -8z m1813 -16 c9 -15 -21
-23 -52 -15 -21 5 -24 8 -12 16 19 12 56 11 64 -1z m1297 -15 c-2 -11 -8 -25
-14 -32 -5 -6 -13 -24 -17 -39 -7 -27 -10 -28 -75 -30 -38 -1 -73 -7 -79 -13
-15 -15 -30 -14 -21 1 4 6 -1 17 -12 25 -18 13 -18 15 -1 24 9 6 17 17 17 25
0 8 7 25 17 37 14 20 25 22 102 22 80 0 86 -1 83 -20z m-4738 -5 c15 -15 -4
-30 -38 -30 -42 0 -65 23 -39 39 18 11 61 6 77 -9z m-126 -12 c-7 -19 -38 -22
-38 -4 0 10 9 16 21 16 12 0 19 -5 17 -12z m3040 -15 c-10 -2 -26 -2 -35 0
-10 3 -2 5 17 5 19 0 27 -2 18 -5z m2296 -80 c-4 -14 -2 -23 5 -23 6 0 3 -8
-8 -19 -10 -10 -21 -25 -23 -32 -5 -12 -8 -12 -19 -1 -15 14 -20 102 -7 102 4
0 8 12 8 28 l1 27 24 -30 c16 -20 22 -37 19 -52z m-3986 -19 c73 -17 132 -17
206 1 56 13 137 14 386 2 86 -5 90 -6 98 -28 8 -20 10 -20 24 -5 20 20 39 21
32 2 -4 -9 2 -16 16 -18 41 -6 14 -23 -40 -25 -30 0 -80 -4 -110 -7 -30 -3
-193 -7 -361 -10 l-307 -4 -10 37 c-12 42 -12 82 1 74 5 -3 34 -11 65 -19z
m3748 -11 c4 -21 11 -44 17 -51 6 -8 14 -37 18 -65 8 -58 3 -68 -55 -133 l-37
-41 -81 28 c-44 15 -85 33 -90 40 -26 39 27 136 118 218 31 28 55 41 75 41 25
0 29 -5 35 -37z m-1158 -4 c37 1 52 -2 52 -12 0 -9 -30 -17 -102 -25 -122 -15
-218 -33 -218 -43 0 -4 -16 -3 -36 1 -54 12 -69 44 -37 76 15 15 32 16 152 9
75 -4 160 -6 189 -6z m-768 -19 c14 -26 7 -37 -37 -55 -40 -17 -168 -21 -158
-5 4 6 -51 10 -157 11 -90 1 -174 5 -188 9 -14 4 -19 8 -12 9 6 1 12 8 12 16
0 8 3 16 8 16 29 5 262 16 379 17 133 2 143 1 153 -18z m461 -110 c4 -8 10
-22 12 -31 4 -13 14 -15 64 -8 84 12 214 12 259 0 108 -29 252 -42 356 -32 56
5 141 7 186 4 l84 -6 -7 -34 c-9 -52 14 -193 34 -201 28 -12 -46 -17 -181 -14
-105 3 -128 6 -128 18 0 8 7 17 15 20 8 4 15 12 15 20 0 16 33 35 74 44 21 4
32 13 37 32 6 24 4 26 -32 32 -21 3 -57 16 -79 27 -26 14 -61 22 -98 23 -83 1
-585 -28 -533 -32 l43 -3 -37 -20 c-28 -15 -52 -19 -103 -17 -67 3 -92 20 -38
26 28 3 28 4 8 18 -18 13 -21 23 -18 73 2 33 7 64 11 71 9 15 46 9 56 -10z
m-423 -22 c14 -18 3 -105 -16 -120 -12 -10 -92 -13 -349 -11 -184 1 -337 3
-339 6 -3 2 0 16 5 30 8 22 18 26 71 32 34 4 93 13 133 19 47 8 86 9 112 4 21
-5 66 -6 100 -3 33 4 80 8 105 10 25 2 48 4 53 4 4 1 7 8 7 17 0 11 6 14 20 9
11 -3 28 -2 37 4 24 14 48 14 61 -1z m567 -147 c-18 -7 -55 -4 -55 5 0 2 17 4
38 3 28 0 32 -2 17 -8z m971 -66 c-5 -20 -2 -27 19 -37 14 -6 25 -14 25 -18 0
-18 -87 -39 -102 -24 -3 3 1 27 10 55 12 36 21 49 35 49 15 0 18 -5 13 -25z
m489 -5 c7 -21 -3 -69 -18 -87 -12 -16 -67 -16 -88 0 -22 17 -39 51 -31 63 10
14 55 41 77 46 31 6 54 -2 60 -22z m-3320 -60 c260 -10 359 -19 375 -36 5 -5
12 -21 15 -36 6 -25 4 -28 -33 -37 -41 -11 -279 -56 -342 -64 -19 -2 -45 -1
-58 4 -14 5 -43 3 -80 -6 -67 -17 -237 -26 -270 -14 -27 10 -36 31 -28 63 5
19 20 30 61 45 31 12 69 21 85 21 24 0 30 4 30 21 0 12 -8 23 -20 26 -22 6
-28 23 -7 23 6 0 129 -5 272 -10z m1185 -70 c11 -7 7 -10 -17 -10 -18 0 -33 5
-33 10 0 13 30 13 50 0z m-1747 -73 c8 -21 -4 -67 -17 -67 -24 0 -55 30 -49
48 12 32 56 45 66 19z m1790 -9 l47 3 0 -34 c0 -34 -23 -63 -65 -84 -38 -19
-298 -50 -490 -58 -71 -3 -159 -8 -195 -10 l-65 -5 -2 29 c-2 24 4 31 35 44
99 41 411 67 464 39 22 -12 30 -11 68 8 24 12 48 26 54 32 30 26 73 46 86 40
8 -3 36 -5 63 -4z m-2597 -40 c29 -12 54 -27 54 -32 0 -10 -574 3 -603 13 -18
7 -18 8 -2 22 26 21 201 35 358 27 113 -5 149 -11 193 -30z m3244 12 c141 0
401 -23 442 -39 15 -5 64 -7 115 -4 56 3 104 1 133 -7 l45 -12 -25 -20 c-14
-10 -34 -26 -45 -35 -18 -15 -25 -15 -90 2 -63 17 -108 18 -430 16 -210 -1
-366 2 -374 8 -10 6 -12 20 -8 46 8 49 30 65 76 54 20 -5 92 -9 161 -9z
m-2063 -106 c-3 -3 -12 -4 -19 -1 -8 3 -5 6 6 6 11 1 17 -2 13 -5z m2823 -118
c0 -13 7 -37 15 -52 22 -42 19 -49 -18 -48 -17 1 -34 2 -37 3 -4 2 -175 10
-227 11 -26 0 -12 22 25 36 20 8 61 27 90 41 39 18 60 23 80 17 48 -13 62 -14
62 -5 0 5 -6 12 -12 14 -8 3 -6 6 5 6 11 1 17 -7 17 -23z m-3100 -7 c19 -6 50
-12 68 -14 36 -4 49 -11 39 -21 -5 -6 -70 -15 -205 -30 -67 -8 -70 -49 -6 -86
24 -14 40 -15 99 -8 39 5 167 11 285 15 199 6 217 5 236 -12 28 -25 24 -46
-11 -54 -103 -24 -630 -55 -650 -39 -7 5 -17 28 -24 50 -6 22 -21 44 -31 50
-42 23 -4 100 49 100 31 0 59 16 48 27 -5 4 7 13 25 19 42 16 38 16 78 3z
m3273 -20 c20 -5 37 -14 37 -19 0 -12 -97 -43 -110 -35 -16 10 -12 43 8 54 21
13 20 13 65 0z m-709 -65 c72 -27 -108 -72 -361 -89 l-102 -8 -12 26 c-14 32
-6 55 23 66 27 10 428 14 452 5z m-934 -14 c86 -24 91 -65 12 -93 -84 -30
-689 -27 -708 4 -13 21 76 40 290 63 126 14 231 28 234 31 9 9 135 5 172 -5z
m-2220 -116 c21 -20 2 -46 -41 -57 -38 -10 -294 -6 -304 5 -14 13 7 46 33 53
15 4 74 9 131 10 57 2 106 7 109 10 9 9 55 -4 72 -21z m-453 -16 c15 -6 33
-10 38 -9 6 0 1 -6 -9 -14 -21 -16 -46 -19 -95 -9 -36 7 -41 31 -8 37 39 8 45
7 74 -5z m3404 -62 c38 -12 99 -14 315 -10 207 3 279 1 314 -9 l44 -14 -26
-17 c-14 -9 -29 -28 -32 -42 -5 -17 -13 -24 -31 -24 -13 0 -27 -4 -30 -10 -6
-10 -117 -6 -134 5 -6 3 -27 2 -46 -4 -29 -8 -51 -4 -128 20 -90 30 -95 30
-222 23 -71 -4 -177 -8 -235 -8 -105 -1 -105 -1 -108 24 -1 14 6 39 17 57 19
31 23 32 93 35 81 3 140 -4 209 -26z m-2068 -8 c12 -6 51 -10 87 -9 108 3 194
-30 195 -73 0 -10 322 -9 338 1 14 8 196 35 267 39 36 2 101 8 145 14 44 5
109 8 145 4 36 -3 77 -1 92 5 15 6 50 7 78 4 l51 -6 -3 -41 c-3 -39 -5 -41
-48 -53 -25 -6 -81 -12 -125 -13 -44 0 -125 -7 -180 -15 -55 -8 -143 -15 -195
-15 -99 0 -341 -16 -398 -25 -27 -5 -31 -9 -23 -23 14 -26 162 -43 216 -25 22
8 66 15 98 15 46 1 60 -2 72 -18 19 -25 19 -38 0 -30 -8 3 -15 1 -15 -4 0 -5
-17 -12 -37 -15 -78 -14 -113 -26 -113 -40 0 -12 49 -14 328 -13 180 1 337 -2
349 -6 29 -9 35 -31 15 -57 -14 -17 -34 -23 -97 -30 -199 -21 -258 -30 -278
-43 -13 -9 -61 -16 -123 -20 -132 -6 -154 -12 -150 -39 1 -12 -5 -34 -14 -49
-15 -26 -17 -88 -1 -88 3 0 18 -10 32 -22 32 -29 65 -48 83 -48 8 0 21 -6 28
-13 29 -29 56 -38 77 -25 15 9 28 9 58 0 32 -10 96 -20 139 -21 21 -1 23 -40
3 -46 -27 -9 -79 4 -86 21 -3 8 -16 14 -30 14 -17 0 -23 -4 -20 -13 4 -10 -13
-17 -61 -26 -37 -7 -74 -15 -82 -18 -22 -7 48 -42 86 -43 46 0 223 -28 237
-37 6 -4 23 -8 37 -9 78 -6 222 -23 227 -27 6 -7 -99 -37 -137 -40 -27 -2 -30
-7 -44 -64 -9 -34 -16 -73 -16 -87 0 -27 -3 -29 -95 -46 -33 -6 -76 -15 -95
-20 -19 -5 -61 -12 -92 -15 -36 -4 -70 -15 -93 -31 -20 -13 -41 -24 -48 -24
-7 0 -17 -8 -24 -19 -8 -13 -32 -22 -75 -30 -85 -14 -118 -31 -118 -57 0 -26
23 -33 82 -27 24 3 87 -2 139 -12 106 -19 97 -19 164 -6 77 15 126 13 147 -6
31 -28 18 -113 -18 -113 -30 0 -4 -17 36 -24 45 -7 54 -30 15 -40 -18 -5 -323
-34 -373 -36 -2 0 -1 -4 2 -9 3 -5 41 -7 84 -4 43 3 88 0 102 -5 19 -8 21 -11
7 -11 -29 -1 -14 -24 22 -33 35 -9 50 -36 43 -74 -7 -37 -25 -45 -109 -50 -43
-3 -124 -9 -180 -15 -120 -12 -151 -6 -159 28 -6 24 -9 25 -58 19 -71 -9 -186
-47 -186 -62 0 -19 105 -29 175 -17 89 16 640 12 657 -4 9 -10 8 -13 -8 -13
-11 0 -24 -4 -29 -9 -6 -6 -44 -12 -85 -14 -41 -3 -149 -11 -240 -20 -91 -9
-249 -16 -352 -15 -103 0 -201 -3 -218 -7 -28 -6 -31 -10 -28 -38 l3 -32 87 3
c47 1 89 -1 92 -6 7 -11 -30 -28 -77 -37 -24 -5 -34 -12 -33 -23 1 -12 -5 -16
-19 -13 -63 12 -248 -14 -351 -48 -35 -11 -102 -22 -166 -25 -101 -6 -108 -5
-127 16 -23 24 -28 58 -8 58 22 0 37 35 27 66 -4 16 -9 22 -11 14 -1 -8 -5 8
-8 35 -4 33 -10 49 -19 47 -7 -1 -15 5 -18 13 -4 8 -15 15 -25 15 -10 0 -19 6
-19 13 0 7 -9 18 -20 25 -25 15 -26 47 -1 64 37 26 34 52 -8 86 -22 18 -47 32
-55 32 -30 0 -126 51 -126 66 0 12 -6 15 -21 11 -14 -4 -19 -2 -16 7 4 10 -5
12 -31 10 -28 -2 -33 0 -20 7 14 8 15 15 8 34 -5 14 -6 25 -3 25 4 0 1 6 -5
12 -10 10 -15 10 -22 -2 -5 -8 -25 -14 -47 -14 -44 -1 -172 12 -182 19 -4 2
-29 6 -57 9 -309 33 -446 54 -456 69 -4 6 -2 17 4 24 20 24 64 31 358 59 30 3
59 9 65 14 6 5 22 9 36 8 105 -7 169 20 169 70 0 25 -29 102 -39 102 -3 0 -12
14 -19 30 -8 17 -19 30 -26 30 -7 0 -21 9 -30 19 -10 11 -32 23 -50 27 -17 3
-35 10 -41 14 -5 4 -86 18 -180 29 -93 12 -178 24 -187 27 -24 7 -23 51 0 63
10 5 86 17 168 26 153 17 239 30 255 40 5 4 9 13 9 21 0 8 5 13 11 11 6 -1 14
4 16 11 3 6 0 12 -5 12 -21 0 19 58 49 70 30 13 93 105 83 122 -3 4 1 8 8 8
25 1 -16 18 -67 28 -80 16 -285 71 -307 83 -11 6 -41 17 -68 25 -26 8 -50 20
-53 28 -11 27 21 53 70 59 380 45 437 47 453 17 6 -10 13 -39 16 -64 6 -41 8
-44 26 -35 15 8 18 17 14 37 -4 16 -3 22 2 15 6 -9 12 -8 25 7 9 11 17 24 17
29 0 5 7 14 15 21 8 7 13 16 10 20 -7 11 14 26 58 39 20 7 37 17 37 22 0 5 6
9 13 9 7 0 26 12 43 28 17 15 46 35 65 46 42 23 79 60 79 80 0 20 33 29 80 21
37 -6 40 -5 59 32 35 66 64 86 139 93 106 11 132 11 155 -2z m2655 -183 c11
-14 29 -25 40 -25 18 0 50 -26 41 -34 -19 -14 -222 -31 -240 -20 -5 3 6 24 24
48 25 35 40 45 67 48 19 3 38 5 42 6 4 1 15 -9 26 -23z m228 -14 l39 -19 -28
-11 c-32 -12 -80 -14 -90 -4 -5 5 29 53 38 53 1 0 19 -9 41 -19z m-3753 -16
c23 -17 19 -47 -8 -51 -23 -4 -105 25 -105 37 0 27 82 38 113 14z m1952 -15
c3 -5 1 -10 -4 -10 -6 0 -11 5 -11 10 0 6 2 10 4 10 3 0 8 -4 11 -10z m-157
-27 c2 -8 -6 -13 -22 -13 -19 0 -24 4 -19 15 6 18 34 16 41 -2z m1175 -39 c36
-11 7 -38 -60 -56 -18 -4 -50 -13 -70 -19 -21 -6 -72 -15 -113 -20 -108 -14
-115 -15 -115 -9 0 3 -10 19 -22 35 -22 32 -16 56 17 67 20 6 341 8 363 2z
m537 -174 c0 -22 -14 -40 -32 -40 -10 0 -16 5 -13 10 9 15 -11 12 -24 -4 -7
-8 -20 -12 -29 -9 -12 3 -22 -4 -30 -21 -7 -15 -20 -26 -31 -26 -11 0 -40 -7
-64 -15 -59 -20 -227 -37 -242 -25 -16 13 -95 2 -175 -23 -36 -12 -68 -20 -72
-19 -5 1 -8 -2 -8 -7 0 -4 -41 -14 -91 -21 -87 -12 -173 -7 -183 9 -3 4 2 37
12 72 13 48 23 67 42 76 31 15 135 9 220 -15 57 -16 74 -16 140 -5 377 62 580
84 580 63z m262 -1 c49 -13 74 -55 53 -86 -8 -11 -36 -28 -62 -38 -26 -10 -71
-31 -99 -47 -28 -15 -58 -28 -67 -28 -20 0 -23 -26 -4 -33 18 -7 6 -14 -35
-22 -33 -6 -38 -5 -38 12 0 10 4 23 9 29 5 5 19 38 31 73 11 35 30 83 42 107
l20 44 57 0 c31 0 73 -5 93 -11z m-1577 -89 c11 -34 -6 -110 -26 -121 -18 -9
-505 -3 -521 7 -15 9 -8 43 10 52 9 5 33 12 52 16 19 3 65 15 102 27 70 21
184 35 305 38 63 1 72 -1 78 -19z m1213 -116 c18 -13 21 -22 16 -48 -5 -28 -2
-34 15 -39 29 -7 26 -27 -4 -27 -14 0 -25 -5 -25 -11 0 -6 -5 -7 -12 -2 -7 4
-67 8 -133 8 -125 0 -150 9 -100 35 15 8 62 34 104 57 83 47 105 51 139 27z
m340 -265 c29 -6 59 -20 72 -34 l23 -24 -27 -31 c-14 -18 -24 -35 -22 -39 3
-4 -23 -15 -57 -25 -34 -10 -73 -22 -87 -26 -14 -5 -47 -12 -75 -16 -27 -4
-55 -13 -63 -20 -18 -19 -39 -18 -50 2 -9 17 -36 19 -91 8 l-33 -7 7 34 c4 19
11 36 14 39 4 3 13 19 20 37 14 34 19 36 153 48 49 5 77 14 110 35 51 34 45
33 106 19z m-1216 -82 c13 -4 71 -9 131 -13 125 -8 135 -19 55 -60 -29 -15
-61 -35 -71 -45 -10 -11 -30 -20 -45 -20 -31 -2 -55 -5 -62 -8 -16 -7 -88 -11
-107 -6 -16 4 -23 13 -23 30 0 33 27 112 53 154 l21 35 13 -31 c7 -18 22 -33
35 -36z m743 -39 c-2 -18 -5 -40 -8 -48 -10 -30 -27 -83 -27 -86 0 -2 16 -4
35 -4 19 0 35 -3 35 -6 0 -19 -39 -38 -125 -61 -40 -11 -114 -5 -94 8 9 6 -9
9 -53 9 -38 0 -68 2 -68 5 0 12 102 105 115 105 18 0 86 31 103 47 21 20 13
28 -28 30 -22 0 -40 -3 -40 -7 0 -12 -53 4 -58 18 -2 7 21 12 75 15 43 1 92 4
109 5 29 2 31 0 29 -30z m38 -345 c15 -20 27 -44 27 -53 0 -21 -41 -34 -52
-17 -6 9 -8 9 -8 -1 0 -8 -5 -10 -12 -5 -7 4 -26 6 -42 4 -28 -3 -28 -2 -21
35 10 58 22 74 53 74 19 -1 35 -11 55 -37z m-693 9 c29 -23 22 -35 -38 -67
-33 -17 -39 -23 -19 -19 52 12 26 -12 -33 -30 -76 -23 -184 -15 -200 14 -26
48 2 70 122 96 129 28 141 28 168 6z m528 3 c2 -2 -4 -20 -13 -40 -10 -19 -15
-38 -13 -41 3 -2 33 -10 66 -16 52 -10 59 -13 44 -23 -23 -16 -167 -42 -273
-51 -91 -6 -143 1 -118 17 11 7 10 9 -3 9 -19 0 -22 21 -9 55 6 15 3 23 -10
30 -19 11 -19 12 1 33 16 17 33 22 73 23 29 0 70 4 92 9 35 8 154 4 163 -5z
m-331 -222 c-20 -2 -52 -2 -70 0 -17 2 0 4 38 4 39 0 53 -2 32 -4z m663 -27
c8 -7 62 -29 120 -51 170 -62 173 -84 9 -92 -70 -4 -115 -11 -138 -23 -33 -16
-34 -18 -13 -24 12 -4 22 -14 22 -22 0 -8 9 -14 20 -14 29 0 25 -34 -5 -48
-32 -15 -55 -15 -55 -2 0 6 -9 10 -20 10 -41 0 -87 28 -101 59 -15 35 -61 65
-77 49 -6 -6 -14 3 -22 22 -16 38 -37 50 -90 50 -39 0 -41 1 -38 28 3 24 8 28
53 35 28 4 77 16 110 26 67 19 199 18 225 -3z m-983 -1 c0 -9 -12 -18 -26 -22
-23 -6 -24 -7 -6 -14 11 -4 31 -8 45 -8 42 -2 57 -17 42 -41 -11 -18 -10 -20
10 -22 13 0 29 -1 36 -1 6 1 12 -3 12 -8 0 -5 -7 -9 -15 -9 -8 0 -15 -4 -15
-8 0 -11 -86 -52 -108 -52 -10 0 -23 -5 -28 -10 -6 -6 -40 -13 -75 -16 -35 -2
-66 -9 -70 -15 -3 -6 -9 -10 -13 -9 -7 2 -81 -9 -111 -17 -11 -2 -5 5 14 17
18 12 40 19 48 16 8 -3 12 -2 8 3 -3 5 8 12 25 16 33 7 41 25 11 25 -11 0 -21
6 -24 13 -6 18 38 128 55 138 9 5 42 11 74 15 33 4 66 10 74 15 23 13 37 11
37 -6z m-2399 -47 c18 -18 16 -133 -3 -148 -20 -16 -214 -6 -390 22 -71 11
-167 25 -213 32 -97 15 -118 29 -85 56 26 20 83 27 353 39 263 12 325 12 338
-1z m2911 -14 c3 -3 0 -13 -6 -23 -10 -16 -8 -20 10 -25 12 -3 34 -6 50 -6 66
0 0 -43 -100 -64 -37 -8 -104 -18 -147 -22 l-79 -7 8 29 c10 37 11 63 2 90 -7
19 -3 21 35 23 24 1 61 5 83 9 42 8 135 5 144 -4z m-539 -198 c0 -3 -4 -8 -10
-11 -5 -3 -10 -1 -10 4 0 6 5 11 10 11 6 0 10 -2 10 -4z m-47 -28 c-6 -7 -8
-29 -6 -50 4 -32 9 -37 40 -43 l34 -6 -23 -25 c-35 -37 -93 -62 -167 -70 -26
-3 -56 -7 -68 -9 -25 -4 -29 5 -11 23 9 9 7 12 -10 12 -34 0 -44 31 -26 84 17
50 13 48 124 67 36 6 72 15 80 20 23 13 44 11 33 -3z m467 -23 c7 -8 8 -15 3
-15 -5 0 -14 -14 -20 -31 l-12 -32 61 6 c39 3 56 2 47 -4 -11 -7 -11 -9 -1 -9
11 0 11 -2 0 -13 -7 -8 -20 -16 -28 -20 -9 -3 -2 -6 15 -7 28 -1 27 -2 -20
-25 -27 -14 -66 -28 -85 -31 -19 -4 -39 -9 -44 -12 -5 -3 -34 -6 -65 -7 -31
-2 -78 -6 -106 -10 -59 -9 -51 5 15 26 l45 14 -38 3 c-20 2 -35 7 -32 13 4 5
-1 9 -9 9 -23 0 -20 37 4 50 22 12 26 40 8 58 -22 22 8 35 99 42 140 11 150
11 163 -5z m-2848 -16 c62 -2 88 -26 88 -80 0 -68 -12 -79 -83 -79 -80 0 -384
44 -420 61 -15 7 -26 17 -24 23 8 23 60 50 114 58 32 5 76 13 98 18 22 4 72 7
110 5 39 -2 91 -4 117 -6z m5156 -36 c3 -33 -19 -59 -43 -49 -20 7 -19 45 2
68 22 25 37 18 41 -19z m-3368 -3 c20 -12 15 -123 -7 -157 -20 -30 -12 -37 42
-38 44 0 72 -15 61 -33 -5 -9 -183 -39 -201 -33 -5 2 -75 4 -153 6 -79 2 -148
7 -154 13 -16 16 1 50 30 61 l27 9 -30 2 c-26 1 -27 3 -10 10 16 6 12 9 -20
11 -28 3 -41 9 -43 21 -4 20 19 48 40 49 9 0 9 2 1 5 -7 3 -9 12 -6 21 5 12 1
14 -18 8 -13 -4 -26 -11 -29 -15 -3 -3 -16 -4 -30 0 -22 5 -23 7 -7 13 11 4
23 5 28 1 5 -3 9 0 9 6 0 6 5 8 10 5 6 -3 16 -3 23 2 6 4 14 8 17 8 3 1 24 5
48 9 42 8 221 22 312 24 25 1 52 -3 60 -8z m-2685 -53 c17 -9 49 -25 71 -36
94 -44 62 -73 -101 -90 -105 -11 -274 -8 -298 6 -4 3 -1 16 7 29 9 13 16 39
16 57 0 50 23 57 160 54 83 -2 123 -8 145 -20z m1920 -107 c-3 -5 -10 -10 -16
-10 -5 0 -9 5 -9 10 0 6 7 10 16 10 8 0 12 -4 9 -10z m1335 -16 c-17 -15 -34
-23 -38 -19 -4 4 -2 10 4 12 6 2 20 10 30 18 33 25 37 16 4 -11z m453 -11 c-7
-2 -19 -2 -25 0 -7 3 -2 5 12 5 14 0 19 -2 13 -5z m-530 -25 c-17 -21 -15 -88
2 -88 18 0 19 -12 4 -27 -7 -7 -3 -9 17 -5 l27 5 -29 -30 c-27 -28 -104 -61
-104 -44 0 4 -34 2 -75 -4 -75 -12 -75 -12 -81 11 -3 13 1 37 9 53 8 17 13 40
10 51 -6 23 14 33 98 48 30 6 68 18 84 26 36 19 51 20 38 4z m-1417 -9 c10
-16 83 -49 109 -49 43 0 28 -30 -31 -60 -56 -29 -292 -83 -365 -83 -67 -1 -72
5 -67 83 2 38 6 72 9 75 9 8 113 26 179 32 30 2 56 6 58 8 9 8 102 2 108 -6z
m472 -6 c5 -18 -10 -16 -34 2 -18 15 -18 15 5 13 14 -2 26 -9 29 -15z m1367
-5 c4 -3 -1 -20 -10 -38 -9 -18 -14 -34 -12 -36 2 -3 22 -6 43 -8 21 -2 40 -9
42 -15 2 -6 0 -11 -5 -10 -4 1 -21 -3 -38 -10 -44 -18 -112 -33 -178 -38 -46
-4 -62 -1 -77 12 -18 16 -18 18 0 47 15 24 16 35 7 49 -6 10 -8 22 -4 26 9 8
157 30 199 29 15 -1 30 -4 33 -8z m-2628 -21 c20 -20 34 -87 22 -109 -9 -16
-24 -18 -132 -18 -135 0 -344 34 -370 59 -16 16 7 41 47 51 22 6 55 17 71 25
42 21 340 14 362 -8z m1657 -44 c5 -3 6 -29 2 -56 -5 -43 -2 -55 15 -73 l20
-22 -23 -5 c-34 -9 -33 -47 2 -47 35 0 58 -16 44 -30 -14 -14 -403 -19 -447
-7 -16 4 -26 13 -24 20 5 13 6 13 50 2 21 -6 27 -4 27 9 0 12 -11 16 -42 18
l-43 1 38 4 c63 7 31 23 -46 23 -40 0 -78 4 -85 9 -20 12 -11 44 17 57 23 12
23 12 2 19 -12 3 -19 10 -16 15 3 5 12 7 19 4 9 -3 15 5 19 24 9 45 49 52 272
45 105 -3 194 -8 199 -10z m-2488 -15 c4 -6 -3 -19 -15 -29 l-23 -19 24 -9
c12 -5 37 -14 53 -19 40 -11 47 -48 12 -61 -32 -13 -292 -22 -337 -12 -33 6
-35 9 -37 49 -1 24 -3 49 -6 56 -13 34 10 41 150 47 76 3 146 6 155 7 9 1 20
-3 24 -10z m3084 -103 c-7 -8 -20 -15 -29 -15 -11 0 -8 5 9 14 33 19 35 19 20
1z m-1685 -25 c-3 -6 4 -14 17 -19 20 -9 19 -10 -14 -10 -20 -1 -49 4 -65 10
-22 8 -24 12 -13 19 20 13 83 13 75 0z m309 -16 c25 -9 19 -43 -9 -56 -27 -12
-32 -27 -13 -46 14 -14 -12 -47 -45 -55 -12 -3 -49 -13 -82 -21 -77 -20 -270
-32 -279 -18 -9 15 5 119 18 137 10 15 64 26 186 40 30 3 80 10 110 14 73 11
95 12 114 5z m1595 -44 c19 0 22 -4 17 -24 -5 -20 -1 -24 26 -30 21 -4 28 -10
22 -16 -13 -13 -264 -59 -264 -48 0 4 -6 8 -14 8 -24 0 -29 20 -11 40 16 18
15 19 -11 22 -15 2 -29 8 -31 14 -4 13 160 44 207 38 19 -2 46 -4 59 -4z
m-2476 -14 c25 -10 36 -23 45 -54 22 -71 14 -76 -107 -68 -116 7 -281 33 -294
46 -16 15 4 50 31 56 15 3 36 9 47 14 40 17 51 18 148 19 62 1 110 -4 130 -13z
m2090 -15 c4 -1 7 -8 7 -16 0 -7 7 -18 16 -23 35 -20 -89 -77 -151 -70 -24 2
-31 8 -33 30 -2 15 1 35 7 45 11 20 82 42 121 37 14 -1 28 -3 33 -3z m-723
-70 c7 -13 21 -13 105 3 53 10 99 16 102 12 3 -3 7 -18 8 -33 1 -16 4 -34 6
-42 6 -21 -97 -41 -223 -42 -136 -1 -150 3 -146 44 3 30 2 32 -32 29 -40 -3
-77 18 -65 37 11 19 233 11 245 -8z m-2087 -22 c54 -10 100 -19 103 -19 12 0
1 -31 -14 -39 -32 -17 -183 -32 -292 -29 -104 3 -105 3 -106 28 -1 14 -4 32
-8 41 -5 12 0 22 16 34 19 14 38 15 113 10 50 -4 134 -15 188 -26z m2767 -84
c-11 -13 -8 -15 23 -15 42 0 55 -15 33 -38 -9 -9 -26 -29 -37 -44 -30 -41 -97
-67 -146 -59 -56 11 -66 19 -58 50 12 48 32 69 76 76 23 4 57 18 77 31 37 25
54 25 32 -1z m339 -10 c-1 -5 -5 -20 -10 -33 -13 -34 -11 -42 10 -42 42 0 29
-19 -19 -29 -58 -13 -94 -14 -139 -5 -36 8 -38 17 -11 46 11 12 20 29 20 38 0
9 12 21 28 27 34 13 123 11 121 -2z m-1506 -19 c3 -8 26 -15 56 -18 58 -6 64
-9 55 -31 -6 -18 -23 -25 -73 -33 -20 -3 -39 -8 -42 -10 -3 -2 -65 -12 -137
-24 -150 -23 -245 -26 -259 -7 -12 15 -9 75 3 86 5 5 56 14 114 21 58 7 125
16 150 20 77 13 127 11 133 -4z m-825 -38 c20 -17 14 -56 -11 -72 -20 -13 -36
-13 -137 0 -153 19 -170 23 -170 39 0 8 10 20 23 27 42 24 267 28 295 6z
m1455 -66 c-9 -60 -13 -62 -147 -62 -138 0 -168 6 -164 29 4 19 79 37 195 47
50 4 87 12 94 20 18 22 28 7 22 -34z m-2473 8 c-11 -20 -31 -26 -43 -13 -11
10 13 33 35 33 16 0 17 -3 8 -20z m323 -17 c59 -11 110 -23 113 -26 3 -3 3
-15 -1 -26 -8 -26 -76 -36 -259 -36 l-140 0 -2 43 c-2 33 2 45 19 58 28 19
119 15 270 -13z m2725 -40 c-15 -15 -31 -23 -35 -19 -4 4 3 16 17 26 37 29 49
24 18 -7z m-60 -45 c-3 -7 -13 -15 -24 -17 -16 -3 -17 -1 -5 13 16 19 34 21
29 4z m202 -33 c-12 -15 10 -32 49 -38 29 -4 36 -14 14 -21 -43 -13 -113 -25
-179 -31 -82 -8 -101 4 -60 36 31 25 33 36 6 44 -31 10 -12 27 24 22 17 -3 54
-2 81 2 61 8 80 4 65 -14z m-1436 -3 c6 -5 35 -12 65 -15 29 -4 56 -8 58 -11
10 -9 -9 -46 -23 -46 -8 0 -14 -4 -14 -9 0 -11 -70 -38 -135 -51 -27 -6 -95
-12 -150 -13 l-100 -2 3 60 c4 68 13 83 50 87 69 8 235 8 246 0z m-713 -42
c12 -41 10 -58 -8 -75 -14 -14 -30 -16 -102 -11 -113 9 -283 36 -296 47 -21
20 23 40 110 50 49 5 90 11 91 12 1 1 46 2 100 2 96 0 98 -1 105 -25z m1892
-2 c18 -18 17 -20 -20 -53 -20 -18 -42 -31 -48 -27 -5 3 -22 5 -37 3 -44 -4
-66 7 -63 32 1 12 3 30 4 39 3 39 128 43 164 6z m-933 9 c0 -18 -21 -37 -41
-37 -22 0 -31 13 -23 34 7 20 64 22 64 3z m-2175 -35 c16 -10 57 -84 51 -90
-13 -12 -153 4 -173 21 -22 17 -16 56 10 62 67 14 100 16 112 7z m2569 2 c21
-8 22 -77 1 -94 -18 -15 -55 -16 -197 -6 -96 7 -108 10 -108 27 0 11 9 21 23
24 52 12 243 53 254 54 6 0 18 -2 27 -5z m-2026 -69 c76 -18 86 -30 41 -52
-34 -16 -199 -38 -231 -30 -23 6 -25 12 -27 57 l-1 50 73 -4 c39 -2 105 -12
145 -21z m1648 -6 c9 -15 -16 -38 -46 -41 -33 -4 -40 29 -8 41 31 13 46 13 54
0z m1107 -65 c3 -4 0 -18 -7 -33 -7 -14 -11 -31 -9 -37 6 -16 -44 -33 -107
-36 -43 -2 -56 1 -58 13 -2 9 4 21 12 28 8 7 13 18 10 26 -3 7 0 17 7 21 28
17 140 30 152 18z m-319 -53 c0 -17 3 -20 19 -15 17 5 19 3 12 -12 -4 -11 -8
-25 -8 -31 0 -7 -6 -13 -14 -13 -8 0 -25 -7 -38 -16 -13 -8 -36 -14 -52 -12
-26 3 -28 6 -25 43 4 46 11 56 55 72 41 15 52 11 51 -16z m-1041 3 c38 -8 89
-14 115 -14 26 0 53 -4 60 -9 22 -14 -14 -41 -54 -41 -31 0 -68 -6 -239 -40
-62 -12 -142 -16 -151 -7 -11 10 -14 81 -5 96 19 30 162 38 274 15z m-711 -22
c5 -5 8 -27 6 -48 l-3 -39 -50 0 c-59 1 -266 35 -279 47 -16 13 11 32 62 44
55 13 250 10 264 -4z m-1272 -61 c0 -20 -26 -59 -34 -50 -9 9 14 80 25 74 5
-4 9 -14 9 -24z m2556 -23 c-4 -28 -9 -55 -12 -60 -7 -12 -192 -10 -236 3 -44
12 -48 21 -13 37 39 18 180 52 214 52 17 0 31 5 31 10 0 6 5 10 11 10 8 0 9
-16 5 -52z m-2458 16 c23 -11 36 -12 51 -5 27 15 27 15 51 -24 35 -57 10 -83
-48 -51 -15 8 -43 17 -62 21 -57 9 -66 19 -46 49 20 31 15 30 54 10z m595 -30
c56 -14 119 -30 140 -35 39 -10 42 -15 27 -39 -7 -11 -45 -16 -162 -23 -186
-10 -189 -10 -198 0 -4 4 -11 33 -14 64 l-7 56 56 2 c32 0 101 -10 158 -25z
m2490 -84 c-3 -12 0 -20 7 -20 7 0 10 -6 7 -14 -3 -7 -1 -18 5 -24 16 -16 -30
-32 -88 -30 -44 1 -46 2 -41 26 7 34 -2 55 -17 43 -6 -5 -24 -11 -40 -13 -16
-1 -32 -10 -36 -18 -4 -8 -13 -27 -20 -42 -15 -31 -82 -68 -88 -49 -2 6 -8 9
-13 5 -16 -9 -21 24 -10 58 9 27 23 38 78 65 61 28 78 31 165 32 91 1 96 0 91
-19z m-1897 -45 c16 -5 28 -93 15 -109 -8 -9 -30 -9 -108 1 -54 7 -181 14
-283 15 -167 3 -182 4 -150 16 61 23 152 43 250 53 52 6 118 17 145 24 44 12
97 12 131 0z m717 -1 c163 -16 207 -25 207 -44 0 -5 -10 -12 -22 -15 -13 -2
-61 -14 -108 -25 -48 -11 -101 -17 -120 -14 -19 3 -77 -2 -129 -11 -51 -9 -96
-13 -99 -10 -11 11 -12 108 -1 122 15 17 74 17 272 -3z m-2069 -60 c19 -7 20
-26 4 -71 -14 -38 -19 -40 -35 -14 -9 14 -9 29 -2 55 11 39 10 39 33 30z
m2545 -21 c-3 -52 -15 -68 -54 -74 -43 -7 -185 10 -185 22 0 21 129 67 193 68
39 1 47 -2 46 -16z m-2172 -28 c22 -46 8 -65 -37 -48 -16 6 -39 9 -49 6 -25
-6 -64 28 -55 50 4 11 21 17 52 20 26 2 53 4 60 5 7 1 20 -14 29 -33z m313 15
c9 -16 15 -18 36 -10 20 8 45 4 110 -16 46 -14 84 -31 84 -37 0 -23 -123 -57
-208 -57 -30 0 -34 3 -29 20 3 13 -4 31 -19 49 -27 33 -29 42 -12 59 17 17 26
15 38 -8z m2360 -119 c0 -5 -7 -12 -16 -15 -22 -9 -24 -8 -24 9 0 8 9 15 20
15 11 0 20 -4 20 -9z m50 1 c0 -5 11 -12 25 -18 23 -8 24 -11 12 -34 -9 -18
-26 -28 -65 -36 -29 -7 -54 -9 -56 -5 -7 11 13 51 29 57 8 4 15 15 15 25 0 12
7 19 20 19 11 0 20 -4 20 -8z m-990 -32 c183 -19 197 -25 138 -57 -25 -12 -62
-17 -143 -19 -80 -1 -128 -8 -175 -23 -99 -32 -107 -30 -115 28 -4 28 -4 60 0
72 7 20 11 21 104 15 53 -3 139 -10 191 -16z m-1927 4 c12 -4 13 -11 5 -35 -6
-17 -8 -44 -4 -60 6 -33 42 -89 56 -89 5 0 21 -5 36 -10 26 -10 26 -11 9 -30
-10 -11 -20 -39 -22 -62 -8 -72 -2 -292 8 -302 19 -20 10 -92 -15 -121 -42
-49 -71 -2 -91 153 -13 99 -21 151 -46 322 -6 36 -12 104 -15 153 l-6 87 35 0
c20 0 42 -3 50 -6z m2737 -14 c0 -13 5 -18 15 -14 24 9 18 -3 -17 -37 -18 -17
-34 -26 -36 -20 -2 5 -9 8 -17 5 -22 -9 -27 13 -11 51 12 27 21 35 40 35 19 0
26 -5 26 -20z m-1547 0 c13 0 17 -8 17 -37 0 -67 -6 -69 -108 -50 -49 9 -109
17 -133 17 -24 0 -51 5 -59 10 -30 19 12 40 99 50 46 5 87 12 90 16 3 3 22 3
41 0 19 -3 43 -6 53 -6z m-1068 -70 c-8 -13 -52 -13 -60 -1 -3 6 4 15 15 21
11 6 19 14 19 18 -4 24 4 23 17 -1 8 -15 12 -32 9 -37z m2195 23 c0 -10 -7
-27 -15 -37 -8 -11 -15 -30 -15 -42 0 -29 -21 -35 -100 -29 -88 7 -122 15
-117 28 4 14 152 66 188 67 15 0 29 7 33 15 8 21 26 19 26 -2z m678 5 c19 -19
14 -28 -13 -28 -24 0 -34 18 -18 33 9 10 17 9 31 -5z m-2794 -39 c9 14 36 14
73 0 l28 -10 -35 -29 c-45 -37 -76 -45 -105 -26 -26 17 -28 63 -4 92 12 15 15
14 25 -11 7 -17 14 -23 18 -16z m656 31 c0 -13 -28 -25 -38 -16 -3 4 0 11 8
16 20 13 30 12 30 0z m-120 -18 c0 -4 -5 -13 -12 -20 -9 -9 -2 -15 28 -27 57
-23 85 -38 79 -43 -2 -2 -29 -6 -60 -8 -46 -4 -55 -1 -55 12 0 16 -1 16 -18 1
-10 -10 -26 -17 -35 -17 -9 0 -19 -4 -22 -10 -3 -5 -14 -10 -23 -9 -11 0 -12
3 -4 6 16 6 16 43 -1 43 -8 0 -21 8 -30 18 -14 16 -15 21 -3 37 9 13 19 16 32
10 24 -10 76 -6 89 6 11 11 35 12 35 1z m2001 -113 c-6 -16 -10 -18 -10 -7 -1
22 12 55 16 42 2 -6 -1 -22 -6 -35z m124 -39 c37 -7 42 -24 10 -38 -34 -16
-52 -15 -58 2 -3 8 -15 12 -31 9 -24 -5 -25 -3 -24 32 1 29 5 36 19 32 9 -3
23 -1 30 4 10 6 16 2 19 -14 4 -14 16 -24 35 -27z m-203 11 c-1 -6 5 -14 13
-17 23 -9 17 -37 -11 -57 -47 -35 -76 8 -43 63 18 29 47 37 41 11z m-1459 -20
c17 -7 26 -19 30 -46 12 -74 -8 -80 -130 -40 -49 16 -95 25 -122 23 -83 -6
-56 37 31 48 53 7 151 21 160 23 4 0 18 -3 31 -8z m823 -8 c42 -16 -30 -54
-112 -58 -28 -1 -82 -12 -120 -24 -38 -11 -85 -22 -104 -23 -32 -3 -35 0 -38
26 -2 15 -1 39 2 52 6 21 12 24 56 24 31 0 50 4 50 11 0 9 34 10 126 5 69 -4
132 -10 140 -13z m-1786 -18 c0 -10 -10 -15 -26 -15 -22 0 -25 2 -14 15 7 8
19 15 26 15 8 0 14 -7 14 -15z m1994 -14 c14 -5 16 -10 8 -15 -7 -4 -12 -20
-12 -36 0 -50 -30 -61 -127 -47 -45 7 -84 15 -87 18 -11 11 20 29 100 58 87
32 90 33 118 22z m-1896 -28 c-4 -20 -35 -30 -50 -15 -15 15 0 32 28 32 19 0
25 -5 22 -17z m510 -27 c37 -27 32 -35 -34 -55 -56 -18 -86 -11 -102 22 -8 16
-11 31 -8 35 5 5 57 15 102 21 5 0 25 -10 42 -23z m1868 -59 c3 -9 16 -12 34
-9 61 9 82 -41 23 -57 -40 -11 -53 -7 -53 15 0 8 -11 19 -25 24 -14 5 -25 16
-25 25 0 19 39 20 46 2z m-769 -58 c28 -11 30 -35 3 -49 -14 -8 -32 -8 -58 0
-31 8 -49 6 -95 -10 -69 -24 -115 -26 -124 -4 -10 26 14 63 49 73 36 11 188 4
225 -10z m657 5 c19 -18 20 -28 6 -55 -11 -19 -35 -26 -44 -11 -2 4 -7 24 -11
45 -6 33 -5 37 13 37 11 0 28 -7 36 -16z m-2259 -19 c0 -24 -30 -32 -51 -14
-14 12 -14 14 2 26 25 18 49 12 49 -12z m875 16 c20 -5 26 -14 28 -44 4 -45
-7 -47 -91 -18 -45 16 -73 19 -129 14 -66 -5 -72 -4 -58 10 36 38 174 59 250
38z m-772 -34 c13 -15 5 -30 -25 -46 -48 -25 -81 2 -48 39 21 23 57 26 73 7z
m1700 -11 c46 4 50 -2 28 -45 -9 -16 -12 -38 -9 -52 6 -21 5 -23 -10 -10 -9 7
-23 11 -31 8 -7 -3 -44 1 -82 10 -67 15 -68 16 -47 33 12 9 21 25 20 35 -3 24
63 49 79 30 6 -9 25 -12 52 -9z m-1300 -11 c47 -7 127 -42 130 -58 4 -20 -22
-33 -83 -42 -27 -4 -64 -12 -81 -17 -17 -6 -39 -8 -49 -4 -17 6 -17 7 0 26 10
11 24 20 32 20 20 0 16 18 -7 32 -34 21 -24 64 12 52 10 -3 31 -7 46 -9z
m1842 -59 c0 -6 -11 -31 -25 -55 -14 -23 -25 -49 -25 -56 0 -14 -215 -454
-253 -517 -29 -48 -67 -95 -67 -82 0 5 4 14 9 20 9 8 71 162 71 174 0 3 -14
-15 -30 -40 -16 -25 -30 -42 -30 -38 0 14 83 316 116 424 28 92 38 113 60 122
14 7 31 12 38 12 7 0 23 11 35 24 32 34 101 42 101 12z m-1432 -94 c14 -19 15
-32 2 -52 -8 -12 -16 -12 -60 4 -39 14 -65 17 -111 12 -118 -14 -46 41 76 57
42 5 78 -3 93 -21z m672 9 c49 -10 51 -36 4 -51 -29 -10 -41 -10 -61 1 -22 12
-33 11 -84 -8 -68 -25 -85 -22 -92 15 -7 38 1 50 36 55 37 5 147 -1 197 -12z
m-1383 -40 c35 -9 42 -18 66 -68 59 -130 102 -251 92 -262 -2 -2 -10 8 -16 23
-7 14 -15 26 -19 26 -9 0 -50 36 -50 44 0 8 -41 68 -52 76 -13 10 -88 153 -88
167 0 9 6 13 14 10 8 -3 32 -11 53 -16z m1543 -116 c-24 -126 -112 -390 -171
-510 -30 -61 -35 -54 -19 25 5 25 5 48 1 52 -12 13 -101 12 -114 -1 -7 -7 -14
-42 -17 -79 l-5 -67 -13 100 c-7 55 -19 161 -27 235 -8 74 -17 147 -20 161 -7
29 15 59 42 59 8 0 71 27 140 60 68 33 133 60 144 60 11 0 28 7 37 16 15 16
17 14 25 -17 5 -21 4 -56 -3 -94z m-1087 74 c34 -11 80 -30 102 -40 22 -11 67
-29 100 -41 33 -11 63 -23 67 -27 8 -7 38 -373 38 -456 l0 -39 -40 39 c-44 43
-49 37 -24 -25 30 -74 8 -59 -98 67 -55 66 -213 371 -238 460 -25 92 -15 98
93 62z m-358 -330 c4 -23 16 -43 34 -57 35 -25 88 -126 97 -181 4 -23 11 -41
16 -41 5 0 6 -5 3 -10 -3 -6 -23 -7 -43 -4 -30 5 -52 -1 -112 -30 -46 -23 -92
-37 -120 -39 -43 -2 -45 -1 -42 23 2 14 29 62 59 107 34 51 53 89 49 99 -9 22
11 54 34 54 13 0 20 7 20 19 0 29 -15 33 -35 11 -21 -24 -45 -26 -45 -5 0 9 9
15 25 15 28 0 28 0 16 52 -5 20 -6 39 -4 42 13 12 43 -22 48 -55z m285 -647
c0 -21 -2 -24 -10 -12 -13 20 -13 53 0 45 6 -3 10 -18 10 -33z m-18 -89 l-6
-28 -6 25 c-7 27 -3 43 9 35 5 -2 6 -17 3 -32z m2288 -132 c0 -6 19 -11 41
-13 60 -4 72 -28 34 -68 -16 -16 -23 -30 -16 -30 7 0 9 -4 6 -10 -10 -17 -34
-11 -33 8 1 9 -2 27 -6 38 -5 18 -2 22 24 27 16 4 30 11 30 17 0 11 -52 13
-87 4 -27 -8 -30 -39 -5 -54 14 -9 12 -10 -13 -8 -24 2 -30 8 -31 28 -1 14 -5
32 -9 42 -4 11 -1 18 12 21 32 8 53 7 53 -2z m175 -41 c3 -5 1 -10 -4 -10 -6
0 -11 5 -11 10 0 6 2 10 4 10 3 0 8 -4 11 -10z m-262 -17 c-7 -2 -19 -2 -25 0
-7 3 -2 5 12 5 14 0 19 -2 13 -5z m-119 -24 c-8 -14 -34 -10 -34 5 0 9 7 12
20 9 11 -3 17 -9 14 -14z m80 -44 c11 -8 18 -17 15 -19 -7 -7 -49 13 -49 24 0
14 11 12 34 -5z m279 -2 c-7 -2 -21 -2 -30 0 -10 3 -4 5 12 5 17 0 24 -2 18
-5z m-73 -13 c0 -5 -4 -10 -10 -10 -5 0 -10 5 -10 10 0 6 5 10 10 10 6 0 10
-4 10 -10z m433 -98 c26 -9 47 -20 47 -24 0 -14 -67 2 -118 28 -46 24 -46 24
-12 19 19 -4 56 -14 83 -23z m-235 -2 l27 -7 -29 -8 c-20 -5 -31 -4 -37 6 -12
19 -11 32 2 24 6 -4 23 -11 37 -15z m-279 -5 c10 -11 -6 -13 -51 -8 -28 3 -45
10 -42 15 6 9 82 3 93 -7z m584 -45 c24 0 28 -4 25 -22 -3 -20 -8 -23 -48 -20
-25 1 -72 2 -105 2 -51 0 -57 2 -40 12 11 6 22 15 25 18 8 13 43 19 80 14 19
-2 48 -4 63 -4z m130 -27 c-7 -2 -19 -2 -25 0 -7 3 -2 5 12 5 14 0 19 -2 13
-5z m147 -76 l24 -17 -50 0 c-54 0 -65 5 -58 25 7 18 54 13 84 -8z m-970 -37
c0 -5 -2 -10 -4 -10 -3 0 -8 5 -11 10 -3 6 -1 10 4 10 6 0 11 -4 11 -10z m850
-13 c8 -3 -3 -6 -25 -6 -37 0 -39 1 -21 14 11 8 22 11 25 6 3 -4 13 -11 21
-14z m-640 -13 c0 -2 -7 -4 -15 -4 -8 0 -15 4 -15 10 0 5 7 7 15 4 8 -4 15 -8
15 -10z m560 -4 c0 -5 -4 -10 -9 -10 -6 0 -13 5 -16 10 -3 6 1 10 9 10 9 0 16
-4 16 -10z m-1253 -21 c83 -31 154 -99 81 -78 -18 5 -55 9 -83 10 -59 0 -186
31 -185 45 2 15 63 43 97 44 18 0 58 -10 90 -21z m1258 -19 c3 -5 -3 -10 -14
-10 -12 0 -21 5 -21 10 0 6 6 10 14 10 8 0 18 -4 21 -10z m255 -20 c0 -5 9
-10 20 -10 11 0 20 -5 20 -10 0 -16 -27 -23 -65 -16 -53 10 -44 40 13 45 6 0
12 -3 12 -9z m-120 -30 c0 -5 -9 -10 -20 -10 -11 0 -20 5 -20 10 0 6 9 10 20
10 11 0 20 -4 20 -10z m33 -67 c-7 -2 -21 -2 -30 0 -10 3 -4 5 12 5 17 0 24
-2 18 -5z m-83 -163 c0 -5 -7 -10 -15 -10 -8 0 -15 5 -15 10 0 6 7 10 15 10 8
0 15 -4 15 -10z m-1280 -117 c66 -26 135 -86 186 -163 36 -54 27 -64 -26 -31
-85 53 -141 81 -160 81 -24 0 -69 19 -92 38 -22 18 -24 52 -3 52 8 0 19 9 25
20 13 24 13 24 70 3z"/>
<path d="M3040 11940 c0 -11 -4 -20 -10 -20 -5 0 -10 -4 -10 -10 0 -14 18 -13
34 2 14 13 10 48 -5 48 -5 0 -9 -9 -9 -20z"/>
<path d="M3671 11264 c0 -11 3 -14 6 -6 3 7 2 16 -1 19 -3 4 -6 -2 -5 -13z"/>
<path d="M4780 8586 c0 -13 7 -27 16 -30 8 -3 12 -2 9 3 -3 5 -1 12 4 16 14 8
2 35 -15 35 -8 0 -14 -10 -14 -24z"/>
<path d="M4794 8154 c3 -8 6 -18 6 -20 0 -2 5 -4 10 -4 16 0 11 27 -6 34 -12
5 -15 2 -10 -10z"/>
<path d="M3945 7780 c-3 -5 -2 -10 4 -10 5 0 13 5 16 10 3 6 2 10 -4 10 -5 0
-13 -4 -16 -10z"/>
<path d="M1360 6549 c0 -5 5 -7 10 -4 6 3 10 8 10 11 0 2 -4 4 -10 4 -5 0 -10
-5 -10 -11z"/>
<path d="M3180 5904 c-19 -8 -45 -12 -57 -9 -17 4 -23 1 -23 -11 0 -10 8 -15
23 -13 12 1 41 -4 65 -11 48 -15 65 -5 60 35 -4 25 -24 28 -68 9z"/>
<path d="M1320 5399 c0 -34 2 -39 14 -30 8 7 15 8 18 2 2 -5 11 -4 22 4 23 17
14 45 -14 45 -11 0 -20 5 -20 10 0 6 -4 10 -10 10 -5 0 -10 -19 -10 -41z"/>
<path d="M2823 5406 c-13 -6 -23 -19 -23 -28 0 -10 -9 -27 -20 -38 -16 -16
-17 -20 -5 -20 9 0 18 6 21 14 3 8 13 12 26 8 24 -6 38 12 38 51 0 29 -3 30
-37 13z"/>
<path d="M2773 5165 c-46 -20 -41 -27 15 -20 73 10 92 15 92 25 0 15 -70 11
-107 -5z"/>
<path d="M2968 4723 c6 -2 18 -2 25 0 6 3 1 5 -13 5 -14 0 -19 -2 -12 -5z"/>
<path d="M2658 4403 c7 -3 16 -2 19 1 4 3 -2 6 -13 5 -11 0 -14 -3 -6 -6z"/>
<path d="M2928 4403 c7 -3 16 -2 19 1 4 3 -2 6 -13 5 -11 0 -14 -3 -6 -6z"/>
<path d="M3908 953 c-10 -2 -18 -9 -18 -14 0 -12 23 -12 36 0 5 5 18 11 29 14
16 4 15 5 -5 5 -14 0 -33 -2 -42 -5z"/>
<path d="M7267 4913 c-12 -12 -7 -43 17 -116 13 -40 30 -91 37 -114 7 -24 15
-43 19 -43 4 0 10 -9 13 -19 3 -13 15 -21 38 -23 48 -5 50 -28 2 -28 -22 0
-33 -4 -26 -8 10 -6 10 -15 0 -42 -9 -26 -9 -34 1 -37 6 -3 12 -12 12 -21 0
-25 38 -91 71 -124 18 -19 29 -40 29 -58 0 -16 4 -31 9 -35 6 -3 13 -26 17
-52 4 -31 15 -53 32 -68 23 -20 28 -34 31 -97 1 -18 7 -28 17 -28 8 0 12 -5 9
-10 -3 -6 1 -13 10 -16 9 -4 21 -17 26 -30 6 -18 16 -24 38 -24 40 0 61 -44
65 -130 1 -14 12 -34 25 -45 21 -19 45 -69 58 -122 6 -27 20 -30 26 -5 4 16 5
16 6 0 0 -10 8 -18 16 -18 8 0 15 -6 15 -13 0 -8 9 -22 21 -33 18 -16 20 -26
14 -69 -3 -27 -3 -46 1 -42 11 11 44 -50 44 -82 0 -16 7 -34 15 -41 9 -7 23
-29 32 -49 17 -36 60 -98 95 -136 10 -11 29 -32 42 -47 13 -15 27 -24 30 -21
11 12 6 64 -10 94 -8 17 -17 56 -19 89 -3 32 -14 81 -25 110 -11 28 -20 65
-20 82 0 17 -10 45 -23 62 -13 17 -30 54 -39 83 -46 144 -196 495 -253 589
-37 61 -60 83 -87 84 -10 0 -18 4 -18 9 0 5 -10 11 -22 15 -18 4 -20 8 -11 17
9 9 4 16 -22 31 -19 10 -41 18 -49 18 -14 0 -17 25 -17 178 0 47 -16 92 -40
112 -3 3 -11 19 -16 36 -16 47 -63 116 -81 121 -16 4 -62 64 -62 81 0 10 -54
42 -72 42 -8 0 -18 -3 -21 -7z"/>
<path d="M7602 4465 c0 -16 2 -22 5 -12 2 9 2 23 0 30 -3 6 -5 -1 -5 -18z"/>
<path d="M4421 4186 c-15 -7 -21 -18 -21 -43 0 -19 -4 -32 -9 -29 -5 3 -11 0
-14 -8 -7 -18 3 -56 14 -56 5 0 9 -28 9 -63 l0 -62 58 -28 c35 -16 75 -27 100
-27 37 0 42 3 42 23 0 12 -9 42 -20 66 -11 24 -20 58 -20 76 0 28 -33 110 -51
125 -3 3 -8 13 -12 22 -7 19 -39 21 -76 4z"/>
<path d="M3890 4020 c0 -5 5 -10 11 -10 5 0 7 5 4 10 -3 6 -8 10 -11 10 -2 0
-4 -4 -4 -10z"/>
<path d="M5707 3803 c-4 -3 -7 -11 -7 -17 0 -6 5 -5 12 2 6 6 9 14 7 17 -3 3
-9 2 -12 -2z"/>
<path d="M5601 3678 c-15 -15 -18 -24 -9 -29 16 -10 40 1 34 17 -3 7 0 14 7
17 8 2 8 5 0 10 -7 4 -21 -3 -32 -15z"/>
<path d="M8163 3039 c-23 -8 -33 -49 -13 -49 6 0 10 -5 10 -10 0 -6 11 -28 25
-50 14 -22 25 -49 25 -61 0 -12 12 -35 26 -52 17 -21 24 -37 20 -53 -3 -12 0
-29 6 -36 7 -7 18 -28 25 -47 10 -29 10 -38 -4 -62 -15 -25 -15 -31 -3 -54 11
-21 12 -30 2 -46 -7 -11 -8 -19 -2 -19 15 0 42 -60 37 -81 -3 -10 0 -17 5 -16
6 1 12 -8 14 -20 2 -12 15 -47 29 -79 14 -31 24 -62 24 -68 -2 -13 4 -31 36
-101 27 -61 39 -93 60 -170 43 -151 45 -147 42 90 -2 133 -8 237 -15 263 -12
41 -82 200 -103 232 -38 58 -149 326 -149 359 0 6 -11 33 -25 59 -14 26 -25
52 -25 58 0 17 -21 23 -47 13z"/>
<path d="M8522 1800 c0 -19 2 -27 5 -17 2 9 2 25 0 35 -3 9 -5 1 -5 -18z"/>
<path d="M3785 1570 c4 -6 11 -8 16 -5 14 9 11 15 -7 15 -8 0 -12 -5 -9 -10z"/>
<path d="M4135 1540 c3 -5 15 -10 25 -10 10 0 22 5 25 10 4 6 -7 10 -25 10
-18 0 -29 -4 -25 -10z"/>
<path d="M3040 1501 c0 -20 5 -31 14 -31 24 0 25 14 5 39 l-19 23 0 -31z"/>
<path d="M3345 1500 c-8 -13 9 -20 24 -11 10 6 9 10 -3 14 -8 3 -18 2 -21 -3z"/>
<path d="M3703 1474 c-8 -21 13 -42 28 -27 13 13 5 43 -11 43 -6 0 -13 -7 -17
-16z"/>
<path d="M3770 1470 c-8 -5 -11 -12 -8 -16 10 -9 78 5 78 16 0 13 -50 13 -70
0z"/>
<path d="M3120 1450 c0 -5 7 -10 16 -10 8 0 12 5 9 10 -3 6 -10 10 -16 10 -5
0 -9 -4 -9 -10z"/>
<path d="M3388 1416 c-7 -34 9 -61 27 -46 8 7 19 9 24 6 17 -11 21 10 8 38
-16 34 -53 36 -59 2z"/>
<path d="M3135 1420 c-3 -5 1 -10 9 -10 9 0 16 5 16 10 0 6 -4 10 -9 10 -6 0
-13 -4 -16 -10z"/>
<path d="M3904 1376 c-16 -12 -28 -12 -62 -3 -42 11 -68 3 -42 -13 17 -11 6
-25 -25 -34 -11 -3 -2 -3 20 1 22 3 66 7 98 8 67 2 86 14 62 39 -20 20 -25 20
-51 2z"/>
<path d="M3250 1336 c0 -2 7 -6 15 -10 8 -3 15 -1 15 4 0 6 -7 10 -15 10 -8 0
-15 -2 -15 -4z"/>
<path d="M8486 1183 c-4 -9 -3 -19 2 -22 20 -14 30 -46 20 -64 -7 -15 -6 -23
6 -35 15 -15 16 -10 16 61 0 69 -2 77 -19 77 -10 0 -22 -8 -25 -17z"/>
<path d="M4094 1135 c10 -8 23 -12 28 -9 14 9 -2 24 -25 24 -21 -1 -21 -1 -3
-15z"/>
<path d="M5555 830 c-9 -15 13 -40 34 -39 12 0 12 2 -3 8 -14 5 -16 10 -8 15
7 4 10 12 7 17 -8 12 -22 12 -30 -1z"/>
<path d="M5062 771 c-18 -11 30 -53 51 -45 10 3 17 9 17 13 0 13 -56 40 -68
32z"/>
<path d="M5371 733 c-20 -8 27 -32 50 -26 16 4 16 7 4 19 -14 14 -30 16 -54 7z"/>
<path d="M5585 730 c3 -5 22 -10 41 -10 21 0 33 4 29 10 -3 6 -22 10 -41 10
-21 0 -33 -4 -29 -10z"/>
<path d="M5060 701 c-12 -8 -12 -13 -2 -23 17 -17 15 -26 -5 -31 -13 -3 -12
-5 5 -6 13 0 33 -12 46 -26 12 -13 42 -29 66 -34 45 -10 65 -6 42 8 -9 5 -5
11 13 19 29 13 25 29 -11 42 -13 5 -24 16 -24 23 0 9 -15 17 -37 21 -21 3 -47
8 -58 11 -11 3 -27 1 -35 -4z"/>
<path d="M5375 680 c-3 -5 7 -12 22 -16 15 -4 37 -13 48 -20 25 -18 75 -18 75
-1 0 7 -26 20 -58 30 -67 20 -79 21 -87 7z"/>
<path d="M5600 665 c0 -10 10 -15 31 -15 27 0 30 2 19 15 -7 8 -21 15 -31 15
-11 0 -19 -7 -19 -15z"/>
<path d="M5748 643 c12 -2 30 -2 40 0 9 3 -1 5 -23 4 -22 0 -30 -2 -17 -4z"/>
<path d="M5213 529 c-7 -7 -13 -23 -13 -35 0 -19 -7 -22 -57 -27 -31 -3 -62
-2 -68 3 -15 13 -135 24 -135 13 0 -17 54 -35 121 -40 65 -5 66 -6 61 -32 -3
-14 -10 -29 -16 -33 -8 -6 -6 -11 4 -18 13 -9 13 -11 0 -20 -8 -6 -26 -8 -40
-6 -14 3 -32 1 -40 -5 -11 -6 -7 -9 15 -9 17 0 46 -4 65 -9 19 -5 47 -12 63
-15 18 -4 27 -13 27 -26 0 -13 9 -20 28 -23 16 -2 7 -5 -22 -6 -42 -1 -47 -3
-36 -16 10 -12 10 -15 -4 -15 -29 0 -17 -16 27 -32 23 -9 34 -17 25 -17 -21
-1 -24 -29 -4 -45 8 -6 17 -21 21 -33 5 -20 3 -23 -18 -23 -13 0 -44 7 -67 15
-54 19 -104 19 -120 0 -10 -12 -6 -18 24 -36 20 -11 36 -25 36 -30 0 -16 70
-10 76 6 7 16 67 31 84 20 9 -6 9 -10 -1 -16 -27 -17 23 -22 175 -17 84 3 159
8 166 13 8 5 28 9 45 9 19 1 30 6 30 15 0 18 -36 28 -95 27 -48 -1 -90 21 -67
36 6 4 21 8 31 8 11 0 28 8 38 17 12 10 22 13 26 8 9 -12 152 -18 152 -7 0 8
-10 14 -70 40 -14 6 -47 11 -73 10 -50 -1 -67 10 -67 45 0 18 25 24 35 7 3 -5
15 -10 26 -10 10 0 19 -4 19 -10 0 -5 9 -10 20 -10 11 0 20 4 20 9 0 5 10 11
23 13 16 2 21 9 19 23 -5 26 -20 35 -62 35 -19 0 -41 4 -49 9 -16 10 -6 31 15
31 8 0 14 6 14 13 0 19 -21 37 -44 37 -20 1 -20 1 -3 15 18 13 18 14 -4 26
-20 10 -48 14 -131 18 -22 1 -24 21 -3 21 29 0 15 19 -19 25 -19 4 -44 18 -55
31 -16 19 -31 24 -59 24 -20 -1 -46 1 -57 5 -11 3 -26 0 -32 -6z m300 -136
c-7 -2 -21 -2 -30 0 -10 3 -4 5 12 5 17 0 24 -2 18 -5z m-368 -33 c3 -5 1 -10
-4 -10 -6 0 -11 5 -11 10 0 6 2 10 4 10 3 0 8 -4 11 -10z m349 -39 c77 -18 73
-50 -6 -42 -24 2 -37 6 -30 8 23 9 1 22 -26 17 -19 -4 -33 0 -41 10 -12 14 -9
16 25 16 22 0 56 -5 78 -9z m14 -263 c-5 -15 -48 -24 -48 -10 0 14 12 22 33
22 10 0 17 -5 15 -12z"/>
<path d="M5100 514 c0 -3 7 -12 15 -21 13 -13 21 -13 45 -3 16 7 27 16 24 21
-6 10 -84 13 -84 3z"/>
<path d="M7460 490 c-12 -8 -9 -10 13 -10 16 0 26 4 22 10 -8 12 -16 12 -35 0z"/>
<path d="M7772 493 c-14 -5 36 -48 69 -58 21 -7 31 -72 13 -89 -6 -7 -14 -21
-18 -32 -5 -16 1 -25 29 -39 23 -13 30 -22 22 -27 -9 -6 -8 -8 2 -8 8 0 32 -8
53 -17 29 -13 38 -22 35 -35 -3 -10 -1 -21 5 -24 5 -4 8 -19 4 -34 -4 -22 -1
-29 13 -33 24 -6 38 -62 21 -82 -11 -13 0 -15 79 -15 50 0 91 4 91 9 0 4 -13
35 -30 67 -16 32 -30 65 -30 72 0 6 -4 12 -10 12 -5 0 -10 9 -10 20 0 11 -15
36 -34 56 -18 19 -44 58 -57 87 -13 29 -29 56 -36 60 -7 4 -13 19 -13 32 0 46
-140 101 -198 78z m183 -83 c3 -5 -3 -10 -14 -10 -12 0 -21 5 -21 10 0 6 6 10
14 10 8 0 18 -4 21 -10z"/>
<path d="M8516 483 c-3 -10 -6 -44 -7 -76 -2 -33 -8 -62 -16 -68 -7 -6 -10
-15 -7 -20 2 -5 -4 -29 -16 -53 -11 -25 -20 -51 -20 -59 0 -8 -7 -20 -15 -27
-8 -7 -12 -16 -9 -21 3 -5 -6 -20 -20 -34 -15 -14 -26 -34 -26 -44 0 -9 -7
-26 -15 -37 -29 -39 -20 -44 75 -44 l90 0 0 250 c0 138 -2 250 -4 250 -3 0 -7
-8 -10 -17z"/>
<path d="M5720 440 c0 -13 11 -13 30 0 12 8 11 10 -7 10 -13 0 -23 -4 -23 -10z"/>
<path d="M5697 393 c-17 -17 -2 -23 53 -23 49 0 58 3 54 15 -4 10 -21 15 -53
15 -26 0 -51 -3 -54 -7z"/>
<path d="M7550 351 c0 -15 16 -22 35 -15 13 5 14 8 3 15 -18 12 -38 11 -38 0z"/>
<path d="M7090 266 c0 -2 7 -6 15 -10 8 -3 15 -1 15 4 0 6 -7 10 -15 10 -8 0
-15 -2 -15 -4z"/>
<path d="M5826 181 c12 -12 21 -14 26 -7 8 12 -9 26 -31 26 -11 0 -9 -5 5 -19z"/>
<path d="M7870 171 c0 -14 40 -20 63 -10 19 8 18 9 -5 4 -16 -3 -28 -1 -28 5
0 5 -7 10 -15 10 -8 0 -15 -4 -15 -9z"/>
<path d="M5790 120 c0 -5 12 -10 28 -10 21 0 24 2 12 10 -20 13 -40 13 -40 0z"/>
<path d="M5890 111 c0 -10 42 -23 49 -15 7 6 -20 24 -36 24 -7 0 -13 -4 -13
-9z"/>
<path d="M8265 110 c3 -5 10 -10 16 -10 5 0 9 5 9 10 0 6 -7 10 -16 10 -8 0
-12 -4 -9 -10z"/>
<path d="M4745 80 c3 -5 10 -10 16 -10 5 0 9 5 9 10 0 6 -7 10 -16 10 -8 0
-12 -4 -9 -10z"/>
<path d="M4858 48 c8 -8 17 -8 34 0 22 10 21 11 -11 11 -27 1 -32 -2 -23 -11z"/>
<path d="M4940 51 c0 -10 24 -21 43 -21 7 0 3 7 -7 15 -22 17 -36 19 -36 6z"/>
<path d="M7190 45 c-11 -13 -8 -15 24 -15 20 0 36 5 36 10 0 6 -4 10 -9 10 -5
0 -16 2 -24 5 -7 3 -20 -1 -27 -10z"/>
<path d="M5864 39 c19 -12 19 -12 1 -25 -17 -13 -15 -14 22 -14 22 0 56 6 74
14 33 14 34 14 9 20 -14 3 -47 8 -75 11 -41 4 -46 3 -31 -6z"/>
<path d="M6025 30 c-3 -5 1 -10 10 -10 9 0 13 5 10 10 -3 6 -8 10 -10 10 -2 0
-7 -4 -10 -10z"/>
<path d="M6350 30 c-13 -8 -13 -10 2 -10 9 0 20 5 23 10 8 13 -5 13 -25 0z"/>
<path d="M8292 28 c-19 -19 -14 -28 18 -28 17 0 30 4 30 8 0 9 -21 32 -30 32
-3 0 -11 -5 -18 -12z"/>
<path d="M7895 14 l-30 -15 39 5 c22 3 44 10 50 16 15 15 -23 11 -59 -6z"/>
<path d="M4988 3 c6 -2 18 -2 25 0 6 3 1 5 -13 5 -14 0 -19 -2 -12 -5z"/>
<path d="M7488 3 c7 -3 16 -2 19 1 4 3 -2 6 -13 5 -11 0 -14 -3 -6 -6z"/>
</g>
</svg>
